<svg width="69" height="69" viewBox="0 0 69 69" fill="none" xmlns="http://www.w3.org/2000/svg">
<path d="M0.232968 22.5353H21.567V1.71741C21.567 1.6658 21.9834 0.812434 22.0832 0.857167L32.5093 11.421C32.0792 18.9911 35.1554 28.2473 26.7526 32.3627C23.3288 34.0385 18.2017 33.3985 14.5302 33.1886C12.2557 33.0578 11.337 33.9938 9.355 32.5107C7.4074 31.0552 2.29067 25.5806 0.749115 23.5676C0.48416 23.2201 0.0850064 23.1341 0.236409 22.5319L0.232968 22.5353Z" fill="#1A1A1A"/>
<path d="M0.234375 47.1975C2.45036 44.1488 5.30981 41.6025 7.98001 38.9426C8.78864 38.1375 9.06736 36.9125 10.4575 36.6028C12.2227 36.2071 22.4734 36.2862 24.4107 36.6131C26.2206 36.9194 29.5859 39.1835 30.6939 40.6528C34.0213 45.0573 32.0978 53.3844 32.5073 58.656C30.1089 61.7253 26.9054 63.9723 24.0941 66.5875C23.3508 67.2791 22.8863 68.6004 21.565 68.8757V47.7137C21.565 47.6758 21.0867 47.1975 21.0488 47.1975H0.234375Z" fill="#1A1A1A"/>
<path d="M68.0242 47.1956H47.2063C47.1685 47.1956 46.6902 47.6739 46.6902 47.7117V68.8737C46.088 69.0251 46.002 68.626 45.6545 68.361C44.5878 67.5421 35.9509 58.9844 35.7479 58.3099C36.0851 53.4444 34.5848 46.7035 36.8111 42.3094C37.8572 40.2448 41.4599 36.9174 43.786 36.5526C47.9978 35.8954 53.7752 36.9518 58.1624 36.5871C61.3075 40.2689 65.0684 43.3554 68.0242 47.199V47.1956Z" fill="#1A1A1A"/>
<path d="M68.3604 22.5341L58.1407 33.1323C50.925 33.122 40.3543 35.5066 36.6449 27.2413C35.4853 24.6537 35.1859 14.0865 36.0978 11.4335C36.2182 11.0894 40.3474 6.65054 40.9909 6.00364C42.6701 4.30723 44.9927 2.6418 46.6857 0.859375V22.0214C46.6857 22.0592 47.164 22.5375 47.2018 22.5375H68.3638L68.3604 22.5341Z" fill="#1A1A1A"/>
</svg>
