<svg width="37" height="37" viewBox="0 0 37 37" fill="none" xmlns="http://www.w3.org/2000/svg">
<mask id="mask0_1412_54466" style="mask-type:alpha" maskUnits="userSpaceOnUse" x="0" y="0" width="37" height="37">
<rect x="0.499329" y="0.5" width="36" height="36" fill="#D9D9D9"/>
</mask>
<g mask="url(#mask0_1412_54466)">
<path d="M13.0993 26L18.4993 20.6L23.8993 26L25.9993 23.9L20.5993 18.5L25.9993 13.1L23.8993 11L18.4993 16.4L13.0993 11L10.9993 13.1L16.3993 18.5L10.9993 23.9L13.0993 26ZM18.4993 33.5C16.4243 33.5 14.4743 33.1062 12.6493 32.3187C10.8243 31.5312 9.23683 30.4625 7.88683 29.1125C6.53683 27.7625 5.46808 26.175 4.68058 24.35C3.89308 22.525 3.49933 20.575 3.49933 18.5C3.49933 16.425 3.89308 14.475 4.68058 12.65C5.46808 10.825 6.53683 9.2375 7.88683 7.8875C9.23683 6.5375 10.8243 5.46875 12.6493 4.68125C14.4743 3.89375 16.4243 3.5 18.4993 3.5C20.5743 3.5 22.5243 3.89375 24.3493 4.68125C26.1743 5.46875 27.7618 6.5375 29.1118 7.8875C30.4618 9.2375 31.5306 10.825 32.3181 12.65C33.1056 14.475 33.4993 16.425 33.4993 18.5C33.4993 20.575 33.1056 22.525 32.3181 24.35C31.5306 26.175 30.4618 27.7625 29.1118 29.1125C27.7618 30.4625 26.1743 31.5312 24.3493 32.3187C22.5243 33.1062 20.5743 33.5 18.4993 33.5Z" fill="#1C1B1F"/>
</g>
</svg>
