<svg width="48" height="48" viewBox="0 0 48 48" fill="none" xmlns="http://www.w3.org/2000/svg">
<path d="M0.723519 15.6907H15.3029V1.46404C15.3029 1.42877 15.5874 0.845591 15.6556 0.876161L22.7807 8.0953C22.4868 13.2686 24.589 19.5942 18.8466 22.4066C16.5069 23.5518 13.0031 23.1144 10.4941 22.971C8.9397 22.8816 8.31185 23.5212 6.95738 22.5077C5.62642 21.513 2.12972 17.7718 1.07625 16.3961C0.89518 16.1586 0.622404 16.0999 0.725871 15.6883L0.723519 15.6907Z" fill="white"/>
<path d="M0.71875 32.618C2.23312 30.5345 4.18723 28.7944 6.012 26.9767C6.56461 26.4264 6.75508 25.5893 7.70509 25.3777C8.91142 25.1072 15.9166 25.1613 17.2405 25.3847C18.4774 25.594 20.7771 27.1413 21.5343 28.1454C23.8082 31.1553 22.4938 36.846 22.7736 40.4485C21.1346 42.5461 18.9453 44.0816 17.0241 45.8688C16.5162 46.3414 16.1988 47.2444 15.2958 47.4325V32.9707C15.2958 32.9448 14.9689 32.618 14.943 32.618H0.71875Z" fill="white"/>
<path d="M47.0433 32.6193H32.8166C32.7907 32.6193 32.4639 32.9462 32.4639 32.972V47.4338C32.0524 47.5373 31.9936 47.2645 31.7561 47.0835C31.0271 46.5238 25.1248 40.6756 24.9861 40.2147C25.2165 36.8897 24.1913 32.283 25.7127 29.2802C26.4275 27.8692 28.8896 25.5953 30.4792 25.3461C33.3575 24.8969 37.3056 25.6188 40.3038 25.3696C42.4531 27.8857 45.0233 29.995 47.0433 32.6217V32.6193Z" fill="white"/>
<path d="M47.273 15.6911L40.289 22.9337C35.3579 22.9267 28.134 24.5563 25.5991 18.908C24.8066 17.1396 24.602 9.91812 25.2252 8.1051C25.3075 7.86995 28.1293 4.8365 28.569 4.39442C29.7166 3.23512 31.3039 2.09699 32.4608 0.878906V15.3407C32.4608 15.3666 32.7877 15.6934 32.8135 15.6934H47.2753L47.273 15.6911Z" fill="white"/>
</svg>
