<svg width="23" height="23" viewBox="0 0 23 23" fill="none" xmlns="http://www.w3.org/2000/svg">
<path d="M9.5734 16.2972L18.0658 7.80476L16.3794 6.11832L9.5734 12.9243L6.14029 9.49119L4.45386 11.1776L9.5734 16.2972ZM2.82765 22.0792C2.16512 22.0792 1.59796 21.8433 1.12616 21.3715C0.654357 20.8997 0.418457 20.3326 0.418457 19.67V2.80568C0.418457 2.14315 0.654357 1.57599 1.12616 1.10419C1.59796 0.632385 2.16512 0.396484 2.82765 0.396484H19.692C20.3545 0.396484 20.9217 0.632385 21.3935 1.10419C21.8653 1.57599 22.1012 2.14315 22.1012 2.80568V19.67C22.1012 20.3326 21.8653 20.8997 21.3935 21.3715C20.9217 21.8433 20.3545 22.0792 19.692 22.0792H2.82765Z" fill="#ED5A04"/>
</svg>
