<svg width="107" height="107" viewBox="0 0 107 107" fill="none" xmlns="http://www.w3.org/2000/svg">
    <path d="M67.1086 61.9364L106.016 53.4004L67.1086 44.854L76.3741 30.3876L61.8973 39.6532L53.3613 0.746094L44.8149 39.6532L30.3485 30.3876L39.6141 44.854L0.707031 53.4004L39.6141 61.9364L30.3485 76.4132L44.8149 67.1476L53.3613 106.055L61.8973 67.1476L76.3741 76.4132L67.1086 61.9364Z" fill="#ed5a05"/>
    <path d="M45.1888 10.1289L44.0423 15.3506C29.899 18.8004 18.7679 29.942 15.3076 44.0853L10.0859 45.2318C13.4211 27.4615 27.4185 13.4641 45.1888 10.1289Z" fill="#ed5a05"/>
    <path d="M96.638 45.2318L91.4164 44.0853C87.9665 29.942 76.8249 18.8108 62.6816 15.3506L61.5352 10.1289C79.295 13.4641 93.3028 27.4615 96.638 45.2318Z" fill="#ed5a05"/>
    <path d="M96.638 61.5723C93.3028 79.3321 79.3055 93.3399 61.5352 96.6751L62.6816 91.4535C76.8249 88.0036 87.9561 76.862 91.4164 62.7187L96.638 61.5723Z" fill="#ed5a05"/>
    <path d="M45.1888 96.6751C27.4289 93.3399 13.4211 79.3426 10.0859 61.5723L15.3076 62.7187C18.7574 76.862 29.899 87.9932 44.0423 91.4535L45.1888 96.6751Z" fill="#ed5a05"/>
</svg>
    