<svg width="20" height="20" viewBox="0 0 20 20" fill="none" xmlns="http://www.w3.org/2000/svg">
<path d="M18.75 0.652344H1.5C1.08516 0.652344 0.75 0.9875 0.75 1.40234V18.6523C0.75 19.0672 1.08516 19.4023 1.5 19.4023H18.75C19.1648 19.4023 19.5 19.0672 19.5 18.6523V1.40234C19.5 0.9875 19.1648 0.652344 18.75 0.652344ZM16.5844 6.125H15.0867C13.9125 6.125 13.6852 6.68281 13.6852 7.50312V9.31016H16.4883L16.1227 12.1391H13.6852V19.4023H10.7625V12.1414H8.31797V9.31016H10.7625V7.22422C10.7625 4.80312 12.2414 3.48359 14.4023 3.48359C15.4383 3.48359 16.3266 3.56094 16.5867 3.59609V6.125H16.5844Z" fill="#1A1A1A"/>
</svg>
