<svg width="20" height="19" viewBox="0 0 20 19" fill="none" xmlns="http://www.w3.org/2000/svg">
<path d="M18.9531 0.0429688H1.70312C1.28828 0.0429688 0.953125 0.378125 0.953125 0.792969V18.043C0.953125 18.4578 1.28828 18.793 1.70312 18.793H18.9531C19.368 18.793 19.7031 18.4578 19.7031 18.043V0.792969C19.7031 0.378125 19.368 0.0429688 18.9531 0.0429688ZM16.7875 5.51562H15.2898C14.1156 5.51562 13.8883 6.07344 13.8883 6.89375V8.70078H16.6914L16.3258 11.5297H13.8883V18.793H10.9656V11.532H8.52109V8.70078H10.9656V6.61484C10.9656 4.19375 12.4445 2.87422 14.6055 2.87422C15.6414 2.87422 16.5297 2.95156 16.7898 2.98672V5.51562H16.7875Z" fill="white"/>
</svg>
