<svg width="953" height="639" viewBox="0 0 953 639" fill="none" xmlns="http://www.w3.org/2000/svg">
<g opacity="0.2">
<path d="M658.417 404.14L1044.21 319.5L658.417 234.756L750.291 91.3123L606.744 183.187L522.104 -202.604L437.36 183.187L293.916 91.3123L385.79 234.756L0 319.5L385.79 404.14L293.916 547.688L437.36 455.813L522.104 841.604L606.744 455.813L750.291 547.688L658.417 404.14Z" fill="#FBDB67"/>
<path d="M441.042 -109.535L429.674 -57.7589C289.434 -23.5514 179.061 86.9254 144.75 227.166L92.9734 238.534C126.044 62.3291 264.838 -76.4645 441.042 -109.535Z" fill="#FBDB67"/>
<path d="M951.202 238.534L899.426 227.166C865.218 86.9254 754.741 -23.448 614.501 -57.7589L603.133 -109.535C779.234 -76.4645 918.131 62.3291 951.202 238.534Z" fill="#FBDB67"/>
<path d="M951.202 400.529C918.131 576.631 779.338 715.528 603.133 748.598L614.501 696.822C754.741 662.615 865.115 552.138 899.426 411.897L951.202 400.529Z" fill="#FBDB67"/>
<path d="M441.042 748.598C264.941 715.528 126.044 576.734 92.9734 400.529L144.75 411.897C178.957 552.138 289.434 662.511 429.674 696.822L441.042 748.598Z" fill="#FBDB67"/>
</g>
</svg>
