<svg width="1053" height="1053" viewBox="0 0 1053 1053" fill="none" xmlns="http://www.w3.org/2000/svg">
<g opacity="0.2">
<path d="M610.256 385.897L610.409 386.598L611.014 386.212L752.641 295.565L661.996 437.09L661.608 437.694L662.31 437.849L1045.88 522.103L662.31 606.256L661.609 606.409L661.996 607.014L752.642 748.642L611.014 657.996L610.409 657.609L610.256 658.31L526.103 1041.88L441.849 658.31L441.694 657.608L441.09 657.996L299.565 748.641L390.212 607.014L390.598 606.409L389.897 606.256L6.33105 522.103L389.897 437.849L390.599 437.694L390.211 437.09L299.566 295.566L441.09 386.211L441.694 386.599L441.849 385.897L526.103 2.33105L610.256 385.897Z" fill="#FBDB67" stroke=""/>
<path d="M433.252 144.435C293.075 178.747 182.754 289.172 148.339 429.348L97.6045 440.486C130.841 265.085 268.989 126.936 444.391 93.7002L433.252 144.435Z" fill="#FBDB67" stroke=""/>
<path d="M607.783 93.7002C783.082 126.936 921.332 265.085 954.568 440.486L903.835 429.348C869.523 289.171 759.098 178.849 618.922 144.435L607.783 93.7002Z" fill="#FBDB67" stroke=""/>
<path d="M954.568 603.783C921.332 779.082 783.185 917.332 607.783 950.568L618.922 899.835C759.099 865.523 869.42 755.099 903.835 614.923L954.568 603.783Z" fill="#FBDB67" stroke=""/>
<path d="M148.339 614.922C182.651 755.098 293.075 865.42 433.251 899.835L444.391 950.568C269.092 917.332 130.841 779.184 97.6045 603.783L148.339 614.922Z" fill="#FBDB67" stroke=""/>
</g>
</svg>
