<svg width="35" height="35" viewBox="0 0 35 35" fill="none" xmlns="http://www.w3.org/2000/svg">
<path d="M0.349094 11.2263H11.1503V0.686391C11.1503 0.660259 11.3611 0.228212 11.4116 0.25086L16.6902 5.59919C16.4725 9.43186 18.0299 14.1182 13.7757 16.2018C12.0422 17.0502 9.44648 16.7261 7.58763 16.6199C6.43608 16.5537 5.97093 17.0275 4.96747 16.2767C3.98143 15.5398 1.39089 12.768 0.610413 11.7489C0.476269 11.5729 0.274182 11.5294 0.350836 11.2245L0.349094 11.2263Z" fill="#ED5A04"/>
<path d="M0.349609 23.7686C1.47154 22.2251 2.91924 20.9359 4.27113 19.5893C4.68053 19.1816 4.82165 18.5614 5.52547 18.4046C6.41918 18.2043 11.609 18.2444 12.5898 18.4099C13.5061 18.5649 15.2099 19.7112 15.7709 20.4551C17.4555 22.685 16.4817 26.901 16.689 29.5699C15.4747 31.1239 13.8528 32.2615 12.4295 33.5855C12.0532 33.9357 11.818 34.6047 11.149 34.744V24.03C11.149 24.0108 10.9069 23.7686 10.8877 23.7686H0.349609Z" fill="#ED5A04"/>
<path d="M34.6674 23.7696H24.1276C24.1084 23.7696 23.8662 24.0118 23.8662 24.0309V34.745C23.5614 34.8217 23.5178 34.6196 23.3419 34.4854C22.8018 34.0708 18.4291 29.7381 18.3263 29.3967C18.497 26.9333 17.7374 23.5205 18.8646 21.2958C19.3942 20.2505 21.2182 18.5659 22.3959 18.3812C24.5283 18.0485 27.4533 18.5833 29.6745 18.3986C31.2668 20.2627 33.1709 21.8254 34.6674 23.7714V23.7696Z" fill="#ED5A04"/>
<path d="M34.8376 11.2276L29.6635 16.5933C26.0103 16.5881 20.6585 17.7954 18.7804 13.6108C18.1933 12.3007 18.0418 6.95064 18.5034 5.60746C18.5644 5.43325 20.655 3.1859 20.9807 2.85838C21.8309 1.99952 23.0068 1.15633 23.864 0.253906V10.968C23.864 10.9871 24.1061 11.2293 24.1253 11.2293H34.8394L34.8376 11.2276Z" fill="#ED5A04"/>
</svg>
