<svg xmlns="http://www.w3.org/2000/svg" fill="none" viewBox="12.7 12.68 83.09 83.15">
<path d="M14.2701 40.3569H39.7924V15.4521C39.7924 15.3903 40.2905 14.3694 40.4098 14.4229L52.8828 27.0606C52.3683 36.1169 56.0484 47.1903 45.9959 52.1136C41.9 54.1183 35.7664 53.3526 31.3741 53.1015C28.6531 52.9451 27.554 54.0648 25.1829 52.2906C22.853 50.5493 16.7317 44 14.8876 41.5918C14.5706 41.1761 14.0931 41.0731 14.2742 40.3528L14.2701 40.3569Z" fill="white"/>
<path d="M14.2656 69.8621C16.9166 66.2149 20.3375 63.1687 23.5319 59.9866C24.4992 59.0234 24.8327 57.5579 26.4957 57.1874C28.6075 56.714 40.8705 56.8087 43.1881 57.1997C45.3534 57.5661 49.3793 60.2748 50.7049 62.0325C54.6855 67.3016 52.3844 77.2636 52.8743 83.57C50.0051 87.242 46.1726 89.93 42.8094 93.0586C41.9203 93.886 41.3645 95.4667 39.7838 95.796V70.4796C39.7838 70.4343 39.2116 69.8621 39.1663 69.8621H14.2656Z" fill="white"/>
<path d="M95.3697 69.8615H70.4649C70.4196 69.8615 69.8474 70.4337 69.8474 70.479V95.7954C69.127 95.9765 69.0241 95.499 68.6083 95.1821C67.3322 94.2023 56.9998 83.9646 56.7569 83.1578C57.1604 77.337 55.3656 69.2728 58.0289 64.0161C59.2804 61.5462 63.5903 57.5655 66.3731 57.1292C71.4117 56.3429 78.3233 57.6067 83.5718 57.1703C87.3343 61.575 91.8336 65.2675 95.3697 69.8656V69.8615Z" fill="white"/>
<path d="M95.7816 40.3556L83.5556 53.0344C74.9233 53.0221 62.2774 55.8748 57.8398 45.987C56.4526 42.8914 56.0944 30.2496 57.1853 27.0758C57.3294 26.6641 62.2692 21.3538 63.039 20.5799C65.0478 18.5505 67.8265 16.5581 69.8518 14.4258V39.7422C69.8518 39.7875 70.424 40.3597 70.4693 40.3597H95.7857L95.7816 40.3556Z" fill="white"/>
<g filter="url(#filter0_f_1061_2312)">
<path d="M12.731 38.6176H38.2533V13.7128C38.2533 13.651 38.7514 12.6302 38.8708 12.6837L51.3438 25.3213C50.8292 34.3776 54.5094 45.451 44.4569 50.3743C40.3609 52.3791 34.2274 51.6134 29.8351 51.3623C27.1141 51.2059 26.015 52.3255 23.6438 50.5513C21.3139 48.8101 15.1927 42.2607 13.3485 39.8526C13.0315 39.4368 12.554 39.3339 12.7351 38.6135L12.731 38.6176Z" fill="white"/>
<path d="M12.7305 68.1228C15.3815 64.4756 18.8023 61.4294 21.9967 58.2474C22.9641 57.2841 23.2975 55.8186 24.9606 55.4481C27.0723 54.9747 39.3354 55.0694 41.653 55.4605C43.8183 55.8269 47.8442 58.5355 49.1697 60.2933C53.1504 65.5624 50.8492 75.5243 51.3391 81.8308C48.4699 85.5027 44.6374 88.1908 41.2743 91.3193C40.3851 92.1467 39.8294 93.7275 38.2486 94.0568V68.7403C38.2486 68.695 37.6764 68.1228 37.6312 68.1228H12.7305Z" fill="white"/>
<path d="M93.8267 68.1222H68.9219C68.8766 68.1222 68.3044 68.6944 68.3044 68.7397V94.0562C67.584 94.2373 67.4811 93.7598 67.0654 93.4428C65.7893 92.4631 55.4568 82.2253 55.214 81.4185C55.6174 75.5978 53.8226 67.5336 56.486 62.2768C57.7374 59.8069 62.0474 55.8262 64.8301 55.3899C69.8687 54.6036 76.7803 55.8674 82.0288 55.4311C85.7913 59.8357 90.2907 63.5282 93.8267 68.1263V68.1222Z" fill="white"/>
<path d="M94.2386 38.6163L82.0126 51.2952C73.3803 51.2828 60.7345 54.1355 56.2969 44.2477C54.9096 41.1521 54.5515 28.5103 55.6423 25.3365C55.7864 24.9249 60.7262 19.6146 61.496 18.8407C63.5049 16.8113 66.2835 14.8189 68.3088 12.6865V38.003C68.3088 38.0483 68.881 38.6205 68.9263 38.6205H94.2427L94.2386 38.6163Z" fill="white"/>
</g>
<defs>
<filter id="filter0_f_1061_2312" x="0.882219" y="0.868547" width="105.174" height="105.041" filterUnits="userSpaceOnUse" color-interpolation-filters="sRGB">
<feFlood flood-opacity="0" result="BackgroundImageFix"/>
<feBlend mode="normal" in="SourceGraphic" in2="BackgroundImageFix" result="shape"/>
<feGaussianBlur stdDeviation="5.90655" result="effect1_foregroundBlur_1061_2312"/>
</filter>
</defs>
</svg>