<svg width="84" height="59" viewBox="0 0 84 59" fill="none" xmlns="http://www.w3.org/2000/svg">
<g filter="url(#filter0_f_1737_3076)">
<path d="M66.9023 46.3733L64.942 43.31C70.086 34.847 70.081 24.1329 64.942 15.6649L66.9023 12.6016C73.8412 22.7491 73.8462 36.2207 66.9023 46.3733Z" fill="#F8D559"/>
<path d="M17.4062 46.3733C10.4674 36.2257 10.4624 22.7541 17.4062 12.6016L19.3666 15.6649C14.2226 24.1279 14.2276 34.842 19.3666 43.31L17.4062 46.3733Z" fill="#F8D559"/>
<path d="M43.6347 35.4245L56.7037 43.7907L48.3404 30.7189L54.8777 29.2863L48.3375 27.8507L56.7037 14.7818L43.6319 23.1451L42.1992 16.6078L40.7666 23.1451L27.6948 14.7818L36.061 27.8507L29.5207 29.2863L36.0581 30.7189L27.6948 43.7907L40.7637 35.4245L42.1992 41.9647L43.6347 35.4245Z" fill="#F8D559"/>
</g>
<defs>
<filter id="filter0_f_1737_3076" x="7.43717" y="7.83952" width="69.4342" height="43.2956" filterUnits="userSpaceOnUse" color-interpolation-filters="sRGB">
<feFlood flood-opacity="0" result="BackgroundImageFix"/>
<feBlend mode="normal" in="SourceGraphic" in2="BackgroundImageFix" result="shape"/>
<feGaussianBlur stdDeviation="2.38102" result="effect1_foregroundBlur_1737_3076"/>
</filter>
</defs>
</svg>
