<svg width="77" height="77" viewBox="0 0 77 77" fill="none" xmlns="http://www.w3.org/2000/svg">
<path d="M10.4828 29.0766H28.8707V11.1335C28.8707 11.0891 29.2296 10.3535 29.3156 10.3921L38.3019 19.4971C37.9312 26.0219 40.5826 33.9999 33.3402 37.5469C30.3892 38.9913 25.9702 38.4397 22.8056 38.2587C20.8453 38.146 20.0534 38.9527 18.3451 37.6745C16.6664 36.4199 12.2563 31.7014 10.9276 29.9664C10.6993 29.6668 10.3552 29.5927 10.4857 29.0737L10.4828 29.0766Z" fill="#F8D559"/>
<path d="M10.4805 50.3343C12.3904 47.7067 14.855 45.512 17.1565 43.2194C17.8534 42.5254 18.0937 41.4696 19.2919 41.2027C20.8133 40.8616 29.6484 40.9298 31.3182 41.2116C32.8782 41.4755 35.7787 43.427 36.7337 44.6934C39.6016 48.4896 37.9438 55.6669 38.2967 60.2105C36.2295 62.856 33.4684 64.7926 31.0453 67.0466C30.4047 67.6427 30.0043 68.7816 28.8655 69.0189V50.7792C28.8655 50.7466 28.4532 50.3343 28.4206 50.3343H10.4805Z" fill="#F8D559"/>
<path d="M68.9087 50.3321H50.9656C50.933 50.3321 50.5207 50.7444 50.5207 50.777V69.0166C50.0017 69.1471 49.9276 68.8031 49.628 68.5747C48.7086 67.8689 41.2645 60.4929 41.0895 59.9116C41.3801 55.718 40.087 49.908 42.0059 46.1207C42.9075 44.3412 46.0127 41.4733 48.0176 41.1589C51.6477 40.5924 56.6273 41.5029 60.4087 41.1886C63.1194 44.362 66.361 47.0223 68.9087 50.3351V50.3321Z" fill="#F8D559"/>
<path d="M69.2062 29.0761L60.3978 38.2108C54.1785 38.2019 45.0676 40.2572 41.8704 33.1333C40.871 30.903 40.6129 21.7951 41.3989 19.5084C41.5027 19.2119 45.0616 15.386 45.6162 14.8284C47.0636 13.3663 49.0655 11.9308 50.5246 10.3945V28.6342C50.5246 28.6668 50.9369 29.0791 50.9695 29.0791H69.2092L69.2062 29.0761Z" fill="#F8D559"/>
<g filter="url(#filter0_f_1412_49247)">
<path d="M9.37338 27.8266H27.7613V9.88354C27.7613 9.83905 28.1202 9.10353 28.2062 9.14209L37.1926 18.2471C36.8218 24.7719 39.4733 32.7499 32.2308 36.2969C29.2798 37.7413 24.8608 37.1897 21.6963 37.0087C19.7359 36.896 18.944 37.7027 17.2357 36.4245C15.5571 35.1699 11.1469 30.4514 9.81825 28.7164C9.58988 28.4168 9.24585 28.3427 9.37634 27.8237L9.37338 27.8266Z" fill="#F8D559"/>
<path d="M9.375 49.0843C11.285 46.4567 13.7496 44.262 16.051 41.9694C16.748 41.2754 16.9882 40.2196 18.1864 39.9527C19.7078 39.6116 28.543 39.6798 30.2127 39.9616C31.7727 40.2255 34.6733 42.177 35.6282 43.4434C38.4962 47.2396 36.8383 54.4169 37.1912 58.9605C35.1241 61.606 32.3629 63.5426 29.9398 65.7966C29.2992 66.3927 28.8988 67.5316 27.76 67.7689V49.5292C27.76 49.4966 27.3477 49.0843 27.3151 49.0843H9.375Z" fill="#F8D559"/>
<path d="M67.7993 49.0821H49.8562C49.8236 49.0821 49.4113 49.4944 49.4113 49.527V67.7666C48.8923 67.8971 48.8182 67.5531 48.5186 67.3247C47.5992 66.6189 40.1551 59.2429 39.9801 58.6616C40.2707 54.468 38.9777 48.658 40.8965 44.8707C41.7981 43.0912 44.9033 40.2233 46.9082 39.9089C50.5383 39.3424 55.5179 40.2529 59.2993 39.9386C62.0101 43.112 65.2517 45.7723 67.7993 49.0851V49.0821Z" fill="#F8D559"/>
<path d="M68.0968 27.8261L59.2884 36.9608C53.0691 36.9519 43.9582 39.0072 40.7611 31.8833C39.7616 29.653 39.5036 20.5451 40.2895 18.2584C40.3933 17.9619 43.9523 14.136 44.5069 13.5784C45.9542 12.1163 47.9561 10.6808 49.4153 9.14453V27.3842C49.4153 27.4168 49.8275 27.8291 49.8601 27.8291H68.0998L68.0968 27.8261Z" fill="#F8D559"/>
</g>
<defs>
<filter id="filter0_f_1412_49247" x="0.836719" y="0.629687" width="75.7758" height="75.6762" filterUnits="userSpaceOnUse" color-interpolation-filters="sRGB">
<feFlood flood-opacity="0" result="BackgroundImageFix"/>
<feBlend mode="normal" in="SourceGraphic" in2="BackgroundImageFix" result="shape"/>
<feGaussianBlur stdDeviation="4.25547" result="effect1_foregroundBlur_1412_49247"/>
</filter>
</defs>
</svg>
