<svg width="61" height="61" viewBox="0 0 61 61" fill="none" xmlns="http://www.w3.org/2000/svg">
<path d="M38.1289 34.974L60.3418 30.1006L38.1289 25.2212L43.4188 16.9621L35.1537 22.252L30.2803 0.0390625L25.4009 22.252L17.1417 16.9621L22.4317 25.2212L0.21875 30.1006L22.4317 34.974L17.1417 43.2391L25.4009 37.9492L30.2803 60.1621L35.1537 37.9492L43.4188 43.2391L38.1289 34.974Z" fill="#F8D559"/>
<path d="M25.6152 5.39648L24.9607 8.37765C16.886 10.3472 10.5309 16.7082 8.55538 24.783L5.57422 25.4375C7.47835 15.292 15.4698 7.30062 25.6152 5.39648Z" fill="#F8D559"/>
<path d="M54.9902 25.4375L52.0091 24.783C50.0395 16.7082 43.6785 10.3532 35.6038 8.37765L34.9492 5.39648C45.0887 7.30062 53.0861 15.292 54.9902 25.4375Z" fill="#F8D559"/>
<path d="M54.9902 34.7656C53.0861 44.9051 45.0947 52.9025 34.9492 54.8066L35.6038 51.8255C43.6785 49.8559 50.0335 43.4949 52.0091 35.4202L54.9902 34.7656Z" fill="#F8D559"/>
<path d="M25.6152 54.8066C15.4757 52.9025 7.47835 44.9111 5.57422 34.7656L8.55538 35.4202C10.525 43.4949 16.886 49.8499 24.9607 51.8255L25.6152 54.8066Z" fill="#F8D559"/>
</svg>
