<svg width="78" height="78" viewBox="0 0 78 78" fill="none" xmlns="http://www.w3.org/2000/svg">
<g filter="url(#filter0_f_1703_16608)">
<path d="M47.1289 43.974L69.3418 39.1006L47.1289 34.2212L52.4188 25.9621L44.1537 31.252L39.2803 9.03906L34.4009 31.252L26.1417 25.9621L31.4317 34.2212L9.21875 39.1006L31.4317 43.974L26.1417 52.2391L34.4009 46.9492L39.2803 69.1621L44.1537 46.9492L52.4188 52.2391L47.1289 43.974Z" fill="#F8D559"/>
<path d="M34.6152 14.3965L33.9607 17.3776C25.886 19.3472 19.5309 25.7082 17.5554 33.783L14.5742 34.4375C16.4784 24.292 24.4698 16.3006 34.6152 14.3965Z" fill="#F8D559"/>
<path d="M63.9902 34.4375L61.0091 33.783C59.0395 25.7082 52.6785 19.3532 44.6038 17.3776L43.9492 14.3965C54.0887 16.3006 62.0861 24.292 63.9902 34.4375Z" fill="#F8D559"/>
<path d="M63.9902 43.7656C62.0861 53.9051 54.0947 61.9025 43.9492 63.8066L44.6038 60.8255C52.6785 58.8559 59.0335 52.4949 61.0091 44.4202L63.9902 43.7656Z" fill="#F8D559"/>
<path d="M34.6152 63.8066C24.4757 61.9025 16.4784 53.9111 14.5742 43.7656L17.5554 44.4202C19.525 52.4949 25.886 58.8499 33.9607 60.8255L34.6152 63.8066Z" fill="#F8D559"/>
</g>
<defs>
<filter id="filter0_f_1703_16608" x="0.661653" y="0.481965" width="77.2392" height="77.2372" filterUnits="userSpaceOnUse" color-interpolation-filters="sRGB">
<feFlood flood-opacity="0" result="BackgroundImageFix"/>
<feBlend mode="normal" in="SourceGraphic" in2="BackgroundImageFix" result="shape"/>
<feGaussianBlur stdDeviation="4.27855" result="effect1_foregroundBlur_1703_16608"/>
</filter>
</defs>
</svg>
