<svg width="53" height="51" viewBox="0 0 53 51" fill="none" xmlns="http://www.w3.org/2000/svg">
<path d="M23.4787 50.1545C11.926 47.985 2.81405 38.8798 0.644531 27.3203L4.04118 28.0661C6.28528 37.2662 13.5328 44.507 22.7329 46.7578L23.4787 50.1545Z" fill="#CECECE"/>
<path d="M30.1658 0.681454C41.7185 2.85097 50.8305 11.9562 53 23.5156L49.6033 22.7699C47.3593 13.5697 40.1117 6.32898 30.9116 4.07811L30.1658 0.681454Z" fill="#CECECE"/>
<path d="M21.9762 21.8178L7.48316 24.9974L21.9762 28.181L18.5247 33.5698L23.9174 30.1183L27.097 44.6113L30.2806 30.1183L35.6694 33.5698L32.2179 28.181L46.7109 24.9974L32.2179 21.8178L35.6694 16.4251L30.2806 19.8766L27.0971 5.38355L23.9174 19.8766L18.5247 16.4251L21.9762 21.8178Z" fill="#CECECE"/>
</svg>
