<svg width="70" height="67" viewBox="0 0 70 67" fill="none" xmlns="http://www.w3.org/2000/svg">
<g filter="url(#filter0_f_1737_3255)">
<path d="M31.256 58.3107C19.7034 56.1412 10.5914 47.036 8.42188 35.4766L11.8185 36.2223C14.0626 45.4224 21.3102 52.6632 30.5103 54.9141L31.256 58.3107Z" fill="white"/>
<path d="M37.9432 8.83575C49.4959 11.0053 58.6078 20.1105 60.7773 31.6699L57.3807 30.9242C55.1366 21.724 47.8891 14.4833 38.6889 12.2324L37.9432 8.83575Z" fill="white"/>
<path d="M29.7516 29.974L15.2586 33.1537L29.7516 36.3373L26.3001 41.726L31.6928 38.2746L34.8724 52.7676L38.056 38.2746L43.4448 41.726L39.9933 36.3373L54.4863 33.1537L39.9933 29.974L43.4448 24.5813L38.056 28.0328L34.8724 13.5398L31.6928 28.0328L26.3001 24.5813L29.7516 29.974Z" fill="white"/>
</g>
<path d="M31.256 60.2131C19.7034 58.0436 10.5914 48.9384 8.42188 37.3789L11.8185 38.1247C14.0626 47.3248 21.3102 54.5656 30.5103 56.8164L31.256 60.2131Z" fill="white"/>
<path d="M37.9432 10.74C49.4959 12.9096 58.6078 22.0148 60.7773 33.5742L57.3807 32.8284C55.1366 23.6283 47.8891 16.3876 38.6889 14.1367L37.9432 10.74Z" fill="white"/>
<path d="M29.7516 31.8763L15.2586 35.056L29.7516 38.2396L26.3001 43.6284L31.6928 40.1769L34.8724 54.6699L38.056 40.1769L43.4448 43.6284L39.9933 38.2396L54.4863 35.056L39.9933 31.8763L43.4448 26.4837L38.056 29.9351L34.8724 15.4421L31.6928 29.9351L26.3001 26.4837L29.7516 31.8763Z" fill="white"/>
<defs>
<filter id="filter0_f_1737_3255" x="0.0846043" y="0.498667" width="69.03" height="66.1492" filterUnits="userSpaceOnUse" color-interpolation-filters="sRGB">
<feFlood flood-opacity="0" result="BackgroundImageFix"/>
<feBlend mode="normal" in="SourceGraphic" in2="BackgroundImageFix" result="shape"/>
<feGaussianBlur stdDeviation="4.16864" result="effect1_foregroundBlur_1737_3255"/>
</filter>
</defs>
</svg>
