<svg width="18" height="19" viewBox="0 0 18 19" fill="none" xmlns="http://www.w3.org/2000/svg">
<path d="M9.92549 0.0273438C10.938 0.0300437 11.4519 0.0354436 11.8955 0.0480433L12.0701 0.0543431C12.2717 0.0615429 12.4706 0.0705427 12.7109 0.0813424C13.6685 0.126341 14.3219 0.277538 14.8952 0.499833C15.4892 0.728427 15.9895 1.03802 16.4899 1.53751C16.9476 1.9874 17.3017 2.53162 17.5276 3.13227C17.7499 3.70556 17.9011 4.35894 17.9461 5.31742C17.9569 5.55681 17.9659 5.75571 17.9731 5.95821L17.9785 6.1328C17.992 6.57559 17.9974 7.08948 17.9992 8.10196L18.0001 8.77334V9.95231C18.0023 10.6088 17.9954 11.2652 17.9794 11.9215L17.974 12.0961C17.9668 12.2986 17.9578 12.4975 17.947 12.7368C17.902 13.6953 17.749 14.3478 17.5276 14.922C17.3023 15.523 16.9481 16.0673 16.4899 16.5168C16.0399 16.9742 15.4957 17.3283 14.8952 17.5544C14.3219 17.7767 13.6685 17.9279 12.7109 17.9729C12.4974 17.983 12.2838 17.992 12.0701 17.9999L11.8955 18.0053C11.4519 18.0179 10.938 18.0242 9.92549 18.026L9.2541 18.0269H8.07603C7.41928 18.0292 6.76253 18.0223 6.10598 18.0062L5.93138 18.0008C5.71773 17.9927 5.50414 17.9834 5.2906 17.9729C4.33302 17.9279 3.67963 17.7767 3.10545 17.5544C2.50486 17.3289 1.96087 16.9747 1.51158 16.5168C1.05354 16.067 0.699105 15.5228 0.473008 14.922C0.250713 14.3487 0.0995169 13.6953 0.054518 12.7368C0.0444911 12.5233 0.0354913 12.3097 0.0275186 12.0961L0.0230188 11.9215C0.00643408 11.2652 -0.00106655 10.6088 0.000519288 9.95231V8.10196C-0.00199252 7.44551 0.00460803 6.78906 0.0203189 6.1328L0.0266187 5.95821C0.0338185 5.75571 0.0428183 5.55681 0.0536181 5.31742C0.098617 4.35894 0.249813 3.70646 0.472108 3.13227C0.698105 2.531 1.05324 1.98662 1.51248 1.53751C1.96166 1.07985 2.50529 0.725716 3.10545 0.499833C3.67963 0.277538 4.33212 0.126341 5.2906 0.0813424C5.52999 0.0705427 5.72978 0.0615429 5.93138 0.0543431L6.10598 0.0489432C6.76223 0.0329531 7.41868 0.0260526 8.07513 0.0282437L9.92549 0.0273438ZM9.00031 4.52724C7.80686 4.52724 6.6623 5.00133 5.8184 5.84523C4.97451 6.68912 4.50041 7.83369 4.50041 9.02713C4.50041 10.2206 4.97451 11.3651 5.8184 12.209C6.6623 13.0529 7.80686 13.527 9.00031 13.527C10.1938 13.527 11.3383 13.0529 12.1822 12.209C13.0261 11.3651 13.5002 10.2206 13.5002 9.02713C13.5002 7.83369 13.0261 6.68912 12.1822 5.84523C11.3383 5.00133 10.1938 4.52724 9.00031 4.52724ZM9.00031 6.3272C9.35487 6.32714 9.70597 6.39692 10.0336 6.53255C10.3612 6.66818 10.6588 6.867 10.9096 7.11767C11.1603 7.36834 11.3593 7.66595 11.495 7.9935C11.6307 8.32105 11.7006 8.67212 11.7007 9.02668C11.7008 9.38124 11.631 9.73235 11.4953 10.0599C11.3597 10.3875 11.1609 10.6852 10.9102 10.936C10.6595 11.1867 10.3619 11.3856 10.0344 11.5214C9.70685 11.6571 9.35577 11.727 9.00121 11.7271C8.28514 11.7271 7.5984 11.4426 7.09206 10.9363C6.58573 10.4299 6.30127 9.7432 6.30127 9.02713C6.30127 8.31107 6.58573 7.62433 7.09206 7.11799C7.5984 6.61165 8.28514 6.3272 9.00121 6.3272M13.7261 3.17727C13.4277 3.17727 13.1416 3.29579 12.9306 3.50677C12.7196 3.71774 12.6011 4.00388 12.6011 4.30224C12.6011 4.60061 12.7196 4.88675 12.9306 5.09772C13.1416 5.30869 13.4277 5.42722 13.7261 5.42722C14.0245 5.42722 14.3106 5.30869 14.5216 5.09772C14.7325 4.88675 14.8511 4.60061 14.8511 4.30224C14.8511 4.00388 14.7325 3.71774 14.5216 3.50677C14.3106 3.29579 14.0245 3.17727 13.7261 3.17727Z" fill="#1A1A1A"/>
</svg>
