<svg width="19" height="19" viewBox="0 0 19 19" fill="none" xmlns="http://www.w3.org/2000/svg">
<path d="M10.6286 0.417969C11.6411 0.420669 12.155 0.426069 12.5987 0.438668L12.7733 0.444968C12.9749 0.452168 13.1738 0.461168 13.414 0.471967C14.3716 0.516966 15.025 0.668163 15.5983 0.890458C16.1923 1.11905 16.6927 1.42865 17.1931 1.92813C17.6507 2.37803 18.0048 2.92224 18.2307 3.5229C18.453 4.09618 18.6042 4.74957 18.6492 5.70805C18.66 5.94744 18.669 6.14634 18.6762 6.34883L18.6816 6.52343C18.6951 6.96622 18.7005 7.4801 18.7023 8.49258L18.7032 9.16397V10.3429C18.7054 10.9994 18.6985 11.6558 18.6825 12.3121L18.6771 12.4867C18.6699 12.6892 18.6609 12.8881 18.6501 13.1275C18.6051 14.0859 18.4521 14.7384 18.2307 15.3126C18.0054 15.9136 17.6513 16.458 17.1931 16.9074C16.743 17.3649 16.1989 17.7189 15.5983 17.9451C15.025 18.1674 14.3716 18.3186 13.414 18.3636C13.2005 18.3736 12.9869 18.3826 12.7733 18.3905L12.5987 18.3959C12.155 18.4085 11.6411 18.4148 10.6286 18.4166L9.95723 18.4175H8.77915C8.12241 18.4198 7.46566 18.4129 6.8091 18.3968L6.63451 18.3914C6.42086 18.3834 6.20726 18.3741 5.99372 18.3636C5.03614 18.3186 4.38276 18.1674 3.80857 17.9451C3.20799 17.7195 2.66399 17.3653 2.21471 16.9074C1.75666 16.4577 1.40223 15.9134 1.17613 15.3126C0.953838 14.7393 0.802642 14.0859 0.757643 13.1275C0.747616 12.9139 0.738616 12.7003 0.730644 12.4867L0.726144 12.3121C0.709559 11.6558 0.702058 10.9994 0.703644 10.3429V8.49258C0.701132 7.83614 0.707733 7.17969 0.723444 6.52343L0.729744 6.34883C0.736944 6.14634 0.745943 5.94744 0.756743 5.70805C0.801742 4.74957 0.952938 4.09708 1.17523 3.5229C1.40123 2.92162 1.75637 2.37724 2.21561 1.92813C2.66478 1.47047 3.20841 1.11634 3.80857 0.890458C4.38276 0.668163 5.03524 0.516966 5.99372 0.471967C6.23311 0.461168 6.43291 0.452168 6.63451 0.444968L6.8091 0.439568C7.46536 0.423578 8.12181 0.416678 8.77825 0.418869L10.6286 0.417969ZM9.70343 4.91786C8.50999 4.91786 7.36542 5.39196 6.52153 6.23585C5.67763 7.07975 5.20354 8.22431 5.20354 9.41776C5.20354 10.6112 5.67763 11.7558 6.52153 12.5997C7.36542 13.4436 8.50999 13.9177 9.70343 13.9177C10.8969 13.9177 12.0414 13.4436 12.8853 12.5997C13.7292 11.7558 14.2033 10.6112 14.2033 9.41776C14.2033 8.22431 13.7292 7.07975 12.8853 6.23585C12.0414 5.39196 10.8969 4.91786 9.70343 4.91786ZM9.70343 6.71782C10.058 6.71776 10.4091 6.78754 10.7367 6.92317C11.0643 7.0588 11.362 7.25763 11.6127 7.5083C11.8635 7.75897 12.0624 8.05657 12.1981 8.38412C12.3339 8.71167 12.4038 9.06275 12.4038 9.41731C12.4039 9.77187 12.3341 10.123 12.1985 10.4506C12.0628 10.7782 11.864 11.0758 11.6133 11.3266C11.3627 11.5773 11.0651 11.7763 10.7375 11.912C10.41 12.0477 10.0589 12.1176 9.70433 12.1177C8.98827 12.1177 8.30153 11.8332 7.79519 11.3269C7.28885 10.8206 7.0044 10.1338 7.0044 9.41776C7.0044 8.70169 7.28885 8.01495 7.79519 7.50861C8.30153 7.00228 8.98827 6.71782 9.70433 6.71782M14.4292 3.5679C14.1309 3.5679 13.8447 3.68642 13.6337 3.89739C13.4228 4.10837 13.3042 4.39451 13.3042 4.69287C13.3042 4.99123 13.4228 5.27737 13.6337 5.48835C13.8447 5.69932 14.1309 5.81784 14.4292 5.81784C14.7276 5.81784 15.0137 5.69932 15.2247 5.48835C15.4357 5.27737 15.5542 4.99123 15.5542 4.69287C15.5542 4.39451 15.4357 4.10837 15.2247 3.89739C15.0137 3.68642 14.7276 3.5679 14.4292 3.5679Z" fill="white"/>
</svg>
