<svg width="20" height="19" viewBox="0 0 20 19" fill="none" xmlns="http://www.w3.org/2000/svg">
<path d="M17.3698 0.0429688C17.9223 0.0429688 18.4522 0.262462 18.8429 0.653163C19.2336 1.04386 19.4531 1.57377 19.4531 2.1263V16.7096C19.4531 17.2622 19.2336 17.7921 18.8429 18.1828C18.4522 18.5735 17.9223 18.793 17.3698 18.793H2.78646C2.23392 18.793 1.70402 18.5735 1.31332 18.1828C0.922618 17.7921 0.703125 17.2622 0.703125 16.7096V2.1263C0.703125 1.57377 0.922618 1.04386 1.31332 0.653163C1.70402 0.262462 2.23392 0.0429688 2.78646 0.0429688H17.3698ZM16.849 16.1888V10.668C16.849 9.76734 16.4912 8.90359 15.8543 8.26675C15.2175 7.62991 14.3538 7.27213 13.4531 7.27213C12.5677 7.27213 11.5365 7.8138 11.0365 8.6263V7.47005H8.13021V16.1888H11.0365V11.0534C11.0365 10.2513 11.6823 9.59505 12.4844 9.59505C12.8711 9.59505 13.2421 9.7487 13.5156 10.0222C13.7891 10.2957 13.9427 10.6666 13.9427 11.0534V16.1888H16.849ZM4.74479 5.83464C5.20892 5.83464 5.65404 5.65026 5.98223 5.32207C6.31042 4.99388 6.49479 4.54876 6.49479 4.08464C6.49479 3.11589 5.71354 2.32422 4.74479 2.32422C4.2779 2.32422 3.83013 2.50969 3.49999 2.83983C3.16985 3.16997 2.98438 3.61774 2.98438 4.08464C2.98438 5.05339 3.77604 5.83464 4.74479 5.83464ZM6.19271 16.1888V7.47005H3.30729V16.1888H6.19271Z" fill="white"/>
</svg>
