<svg width="19" height="29" viewBox="0 0 19 29" fill="none" xmlns="http://www.w3.org/2000/svg">
<path d="M18.196 14.0982C18.2163 14.1863 18.1689 14.2472 18.0876 14.2743C16.0899 14.728 13.5098 14.8905 12.0876 16.5294C10.7468 18.0734 10.2931 21.2494 10.0019 23.2472C9.75808 24.886 9.59556 26.5383 9.3924 28.1907C9.18924 28.3397 9.18246 28.1704 9.15538 28.0011C8.92513 26.518 8.81678 24.9673 8.60007 23.4706C8.28856 21.3239 7.81452 17.6941 6.14184 16.1975C4.64524 14.8499 2.3563 14.7551 0.500781 14.2946C0.405974 14.2743 0.317938 14.2133 0.399202 14.1185C0.460149 14.044 2.00416 13.7867 2.23441 13.7393C4.96352 13.1501 6.58202 12.6152 7.56396 9.80478C8.41046 7.37364 8.70165 4.23144 9.01316 1.65808C9.06734 1.21113 9.08088 0.703234 9.1486 0.263055C9.17569 0.100527 9.26373 -0.0823164 9.3924 0.127615C9.70391 2.59262 9.92061 5.11179 10.415 7.54971C10.6723 8.80253 11.0448 10.3059 11.7558 11.3759C13.1644 13.4752 15.9544 13.5632 18.1892 14.1118L18.196 14.0982ZM9.31113 11.9921C9.23664 11.9854 9.2705 11.9921 9.25696 12.0328C9.14183 12.5 9.17569 13.5361 8.77614 13.8477C8.53235 14.0373 8.26147 14.0034 8.01091 14.0914C7.97028 14.105 7.94319 14.1118 7.94319 14.1592C7.94319 14.1795 8.33597 14.2404 8.39014 14.254C8.87773 14.3894 8.97931 14.6197 9.08766 15.0869C9.17569 15.4729 9.20278 15.8792 9.25696 16.272C9.33145 16.2788 9.29759 16.272 9.31113 16.2314C9.4398 15.7032 9.35854 14.6264 9.91384 14.342C9.9951 14.3014 10.1238 14.254 10.2118 14.2337C10.2728 14.2201 10.5843 14.1795 10.5978 14.1659V14.0847C10.5843 14.0711 10.2795 14.0373 10.2118 14.017C9.63619 13.8612 9.5617 13.5903 9.45334 13.0486C9.38562 12.6964 9.35854 12.3307 9.31113 11.9786V11.9921Z" fill="#424242"/>
</svg>
