<svg width="20" height="20" viewBox="0 0 20 20" fill="none" xmlns="http://www.w3.org/2000/svg">
<path d="M17.1667 0.652344C17.7192 0.652344 18.2491 0.871837 18.6398 1.26254C19.0305 1.65324 19.25 2.18314 19.25 2.73568V17.319C19.25 17.8715 19.0305 18.4014 18.6398 18.7921C18.2491 19.1828 17.7192 19.4023 17.1667 19.4023H2.58333C2.0308 19.4023 1.50089 19.1828 1.11019 18.7921C0.719493 18.4014 0.5 17.8715 0.5 17.319V2.73568C0.5 2.18314 0.719493 1.65324 1.11019 1.26254C1.50089 0.871837 2.0308 0.652344 2.58333 0.652344H17.1667ZM16.6458 16.7982V11.2773C16.6458 10.3767 16.2881 9.51297 15.6512 8.87613C15.0144 8.23928 14.1506 7.88151 13.25 7.88151C12.3646 7.88151 11.3333 8.42318 10.8333 9.23568V8.07943H7.92708V16.7982H10.8333V11.6628C10.8333 10.8607 11.4792 10.2044 12.2812 10.2044C12.668 10.2044 13.039 10.3581 13.3124 10.6316C13.5859 10.9051 13.7396 11.276 13.7396 11.6628V16.7982H16.6458ZM4.54167 6.44401C5.0058 6.44401 5.45091 6.25964 5.7791 5.93145C6.10729 5.60326 6.29167 5.15814 6.29167 4.69401C6.29167 3.72526 5.51042 2.93359 4.54167 2.93359C4.07478 2.93359 3.62701 3.11907 3.29686 3.44921C2.96672 3.77935 2.78125 4.22712 2.78125 4.69401C2.78125 5.66276 3.57292 6.44401 4.54167 6.44401ZM5.98958 16.7982V8.07943H3.10417V16.7982H5.98958Z" fill="#1A1A1A"/>
</svg>
