<svg width="111" height="37" viewBox="0 0 111 37" fill="none" xmlns="http://www.w3.org/2000/svg">
<path d="M46.3247 3.20898C47.8678 3.20898 49.0179 3.61975 49.7716 4.43771C50.5252 5.25566 50.9038 6.45581 50.9038 8.03815V10.5777C50.9038 12.1601 50.5252 13.3602 49.7716 14.1782C49.0179 14.9961 47.8678 15.4069 46.3247 15.4069H44.8745V22.7471H41.8027V3.20898H46.3247ZM44.871 6.00218V12.6173H46.3211C46.8033 12.6173 47.1784 12.4887 47.4391 12.2279C47.6999 11.9672 47.8285 11.485 47.8285 10.7778V7.84527C47.8285 7.13804 47.6963 6.65583 47.4391 6.39509C47.1784 6.13434 46.8069 6.00575 46.3211 6.00575H44.871V6.00218Z" fill="#EC5A04"/>
<path d="M52.3301 3.20898H55.4019V22.7471H52.3301V3.20898Z" fill="#EC5A04"/>
<path d="M57.3789 7.90122C57.3789 6.31888 57.779 5.10444 58.5791 4.25791C59.3792 3.41138 60.5329 2.98633 62.0402 2.98633C63.5475 2.98633 64.7012 3.41138 65.5013 4.25791C66.3014 5.10444 66.7015 6.31888 66.7015 7.90122V18.0632C66.7015 19.6455 66.3014 20.8599 65.5013 21.7065C64.7012 22.553 63.5475 22.9781 62.0402 22.9781C60.5329 22.9781 59.3792 22.5566 58.5791 21.7065C57.779 20.8599 57.3789 19.6455 57.3789 18.0632V7.90122ZM60.4507 18.2596C60.4507 18.9669 60.5936 19.4633 60.8829 19.7527C61.1722 20.042 61.558 20.1849 62.0402 20.1849C62.5224 20.1849 62.9082 20.042 63.1975 19.7527C63.4868 19.4633 63.6297 18.9669 63.6297 18.2596V7.70833C63.6297 7.00111 63.4868 6.50462 63.1975 6.21529C62.9082 5.92597 62.5224 5.7831 62.0402 5.7831C61.558 5.7831 61.1687 5.92597 60.8829 6.21529C60.5972 6.50462 60.4507 7.00111 60.4507 7.70833V18.2596Z" fill="#EC5A04"/>
<path d="M71.4189 8.59893V22.7507H68.6543V3.20898H72.5048L75.6587 14.9033V3.20898H78.3948V22.7471H75.2408L71.4153 8.59536L71.4189 8.59893Z" fill="#EC5A04"/>
<path d="M83.6757 11.4457H87.8905V14.2353H83.6757V19.9575H88.9799V22.7471H80.6074V3.20898H88.9799V5.99861H83.6757V11.4421V11.4457Z" fill="#EC5A04"/>
<path d="M93.9432 11.4457H98.158V14.2353H93.9432V19.9575H99.2474V22.7471H90.875V3.20898H99.2474V5.99861H93.9432V11.4421V11.4457Z" fill="#EC5A04"/>
<path d="M107.565 22.7507C107.529 22.6221 107.49 22.5006 107.454 22.3863C107.418 22.2756 107.383 22.1363 107.358 21.9684C107.333 21.8005 107.311 21.5862 107.3 21.3255C107.29 21.0647 107.286 20.7397 107.286 20.3468V17.275C107.286 16.3642 107.129 15.7212 106.811 15.3498C106.493 14.9783 105.982 14.7925 105.275 14.7925H104.214V22.7471H101.143V3.20898H105.775C107.375 3.20898 108.533 3.58046 109.251 4.32698C109.965 5.06993 110.326 6.19864 110.326 7.70596V9.24186C110.326 11.2528 109.654 12.5744 108.315 13.2066C109.097 13.5245 109.633 14.0389 109.919 14.7568C110.208 15.4748 110.351 16.3427 110.351 17.3679V20.3825C110.351 20.8683 110.369 21.2898 110.408 21.6541C110.444 22.0184 110.537 22.3828 110.687 22.7578H107.561L107.565 22.7507ZM104.214 6.00218V12.0029H105.415C105.99 12.0029 106.443 11.8529 106.768 11.5564C107.093 11.26 107.258 10.7206 107.258 9.93838V8.01314C107.258 7.30591 107.133 6.79514 106.883 6.47724C106.633 6.16292 106.236 6.00218 105.697 6.00218H104.218H104.214Z" fill="#EC5A04"/>
<path d="M48.1322 32.8561V32.5418C48.2787 32.5347 48.6001 32.5061 48.7073 32.4632C48.9145 32.3847 48.968 32.2275 48.968 32.0382V29.9272H46.2749V31.9846C46.2749 32.1775 46.3356 32.3239 46.5285 32.4204C46.6249 32.474 46.9464 32.524 47.0928 32.5418V32.8561H44.2246V32.5418C44.3639 32.5347 44.6925 32.499 44.8068 32.4632C45.0068 32.3847 45.0676 32.2275 45.0676 32.0275V27.727C45.0676 27.5341 44.9997 27.3983 44.8068 27.3019C44.6604 27.2412 44.3711 27.1626 44.2246 27.1555V26.834H47.0928V27.1555C46.9464 27.1626 46.6749 27.209 46.5285 27.259C46.3213 27.3305 46.2749 27.4948 46.2749 27.6841V29.5165H48.968V27.727C48.968 27.5341 48.9002 27.3983 48.7073 27.3019C48.568 27.2412 48.2823 27.1626 48.1322 27.1555V26.834H51.0076V27.1555C50.8611 27.1626 50.5718 27.209 50.4254 27.259C50.2253 27.3305 50.1718 27.4948 50.1718 27.6841V31.9846C50.1718 32.1775 50.2325 32.3239 50.4254 32.4204C50.5397 32.4811 50.8611 32.524 51.0076 32.5418V32.8561H48.1322Z" fill="#EC5A04"/>
<path d="M57.1896 32.8561H51.8711V32.5418C52.0175 32.5347 52.3747 32.4882 52.4783 32.4454C52.6783 32.3597 52.7391 32.2096 52.7391 32.0203V27.727C52.7391 27.5341 52.6855 27.3983 52.4783 27.3019C52.3212 27.234 52.0175 27.1626 51.8711 27.1555V26.834H56.8681V28.327H56.5467C56.4252 27.9377 55.9823 27.3019 55.5823 27.234C55.3822 27.1983 55.1143 27.1983 54.8536 27.1983H53.9499V29.5522H54.5929C55.0965 29.5522 55.2429 29.4057 55.3501 29.2843C55.4823 29.145 55.6037 28.7699 55.6358 28.5449H55.9573V30.9774H55.6358C55.6108 30.7237 55.4608 30.3094 55.3501 30.188C55.2465 30.0665 55.0965 29.9201 54.5929 29.9201H53.9499V31.6917C53.9499 32.4132 54.1071 32.4918 54.95 32.4918C55.393 32.4918 56.0538 32.499 56.2609 32.2847C56.5288 32.006 56.9039 31.2952 57.0003 31.0345H57.3039L57.1896 32.8597V32.8561Z" fill="#EC5A04"/>
<path d="M61.215 32.8579V32.5436C61.5115 32.5186 62.033 32.44 62.033 32.3007C62.033 32.2471 62.0151 32.1792 61.9901 32.1078L61.4865 30.8041H59.3934C59.2791 31.0827 59.1505 31.4291 59.0719 31.6827C58.9933 31.9435 58.9683 32.0721 58.9683 32.1685C58.9683 32.4364 59.5577 32.515 59.8541 32.5436V32.8579H57.4824V32.5436C57.6396 32.5364 57.9075 32.4828 58.0575 32.3864C58.2647 32.265 58.404 32.1007 58.5254 31.797C59.1505 30.2754 59.8649 28.4538 60.5507 26.75H61.1507C61.6294 27.9216 63.0117 31.5006 63.201 31.9542C63.2796 32.1471 63.3831 32.2757 63.576 32.3971C63.7332 32.4828 63.9582 32.5293 64.1225 32.5436V32.8579H61.2222H61.215ZM60.4221 28.1573L59.5434 30.4147H61.315L60.4185 28.1573H60.4221Z" fill="#EC5A04"/>
<path d="M69.5325 32.8561H64.4141V32.5418C64.5605 32.524 64.8927 32.4882 64.9963 32.4561C65.1963 32.3775 65.257 32.2132 65.257 32.0203V27.7377C65.257 27.5448 65.2034 27.4091 64.9963 27.3019C64.8391 27.234 64.5605 27.1697 64.4141 27.1555V26.834H67.3323V27.1555C67.1858 27.1626 66.8715 27.209 66.7143 27.259C66.5072 27.3376 66.4607 27.5019 66.4607 27.6948V31.6989C66.4607 32.4275 66.575 32.499 67.468 32.499C67.9109 32.499 68.3967 32.4632 68.5789 32.2811C68.8396 32.0132 69.1968 31.3595 69.3432 30.9952H69.6576L69.5254 32.8561H69.5325Z" fill="#EC5A04"/>
<path d="M74.7699 28.515C74.6556 28.1257 74.2055 27.2899 73.8305 27.2292C73.6126 27.2113 73.3626 27.1935 73.1447 27.1935H72.9197V31.9619C72.9197 32.1548 72.9804 32.3191 73.1876 32.4048C73.3019 32.4584 73.7019 32.5263 73.8662 32.5441V32.8584H70.7658V32.5441C70.923 32.5263 71.323 32.4905 71.4445 32.4477C71.6517 32.3619 71.7124 32.1941 71.7124 32.0048V27.1935H71.4945C71.3123 27.1935 71.0087 27.2113 70.798 27.2292C70.4229 27.2899 69.9729 28.1329 69.8586 28.515H69.5371V26.8398H75.0806V28.515H74.7663H74.7699Z" fill="#EC5A04"/>
<path d="M79.5834 32.8561V32.5418C79.7298 32.5347 80.0513 32.5061 80.1585 32.4632C80.3656 32.3847 80.4192 32.2275 80.4192 32.0382V29.9272H77.726V31.9846C77.726 32.1775 77.7868 32.3239 77.9796 32.4204C78.0761 32.474 78.3975 32.524 78.544 32.5418V32.8561H75.6758V32.5418C75.8151 32.5347 76.1437 32.499 76.258 32.4632C76.458 32.3847 76.5187 32.2275 76.5187 32.0275V27.727C76.5187 27.5341 76.4509 27.3983 76.258 27.3019C76.1116 27.2412 75.8222 27.1626 75.6758 27.1555V26.834H78.544V27.1555C78.3975 27.1626 78.1261 27.209 77.9796 27.259C77.7725 27.3305 77.726 27.4948 77.726 27.6841V29.5165H80.4192V27.727C80.4192 27.5341 80.3514 27.3983 80.1585 27.3019C80.0192 27.2412 79.7334 27.1626 79.5834 27.1555V26.834H82.4588V27.1555C82.3123 27.1626 82.023 27.209 81.8765 27.259C81.6765 27.3305 81.6229 27.4948 81.6229 27.6841V31.9846C81.6229 32.1775 81.6837 32.3239 81.8765 32.4204C81.9908 32.4811 82.3123 32.524 82.4588 32.5418V32.8561H79.5834Z" fill="#EC5A04"/>
<path d="M86.2515 33.0139C84.637 33.0139 83.3047 31.8317 83.3047 29.9028C83.3047 27.974 84.6263 26.6953 86.3729 26.6953C87.0337 26.6953 87.5445 26.8775 87.9267 27.0954L88.1446 26.8346H88.491L88.5339 29.0063H88.1696C87.866 27.8847 87.3623 27.0775 86.4229 27.0775C85.3299 27.0775 84.6584 28.0598 84.6584 29.8064C84.6584 31.553 85.4478 32.4746 86.5944 32.4746C87.4981 32.4746 88.0553 31.9102 88.4267 31.153L88.7661 31.3459C88.3053 32.396 87.4981 33.0139 86.2479 33.0139H86.2515Z" fill="#EC5A04"/>
<path d="M92.5822 32.8579V32.5436C92.8787 32.5186 93.4002 32.44 93.4002 32.3007C93.4002 32.2471 93.3823 32.1792 93.3573 32.1078L92.8537 30.8041H90.7606C90.6463 31.0827 90.5177 31.4291 90.4391 31.6827C90.3605 31.9435 90.3355 32.0721 90.3355 32.1685C90.3355 32.4364 90.9249 32.515 91.2213 32.5436V32.8579H88.8496V32.5436C89.0068 32.5364 89.2747 32.4828 89.4247 32.3864C89.6318 32.265 89.7712 32.1007 89.8926 31.797C90.5177 30.2754 91.232 28.4538 91.9178 26.75H92.5179C92.9965 27.9216 94.3788 31.5006 94.5682 31.9542C94.6467 32.1471 94.7503 32.2757 94.9432 32.3971C95.1004 32.4828 95.3254 32.5293 95.4897 32.5436V32.8579H92.5894H92.5822ZM91.7892 28.1573L90.9106 30.4147H92.6822L91.7857 28.1573H91.7892Z" fill="#EC5A04"/>
<path d="M100.198 32.8584C99.434 31.669 98.9732 31.0332 98.2517 30.1402H97.8338V32.0083C97.8338 32.2012 97.8874 32.3548 98.0874 32.4441C98.191 32.487 98.5124 32.5298 98.6625 32.5477V32.862H95.7871V32.5477C95.9336 32.5298 96.2657 32.4941 96.3693 32.462C96.5693 32.3762 96.6301 32.2191 96.6301 32.0262V27.7257C96.6301 27.5328 96.5765 27.3685 96.3693 27.2828C96.2122 27.2292 95.9264 27.1792 95.7871 27.1613V26.8398H98.8625C100.113 26.8398 100.966 27.2756 100.966 28.2722C100.966 29.2008 100.366 29.6259 99.4983 29.8866C100.02 30.5724 100.359 31.0261 100.966 31.8155C101.202 32.1119 101.427 32.3441 101.663 32.4512C101.809 32.512 102.052 32.537 102.174 32.5477V32.862H100.202L100.198 32.8584ZM98.3553 27.2113H97.8338V29.7581H98.2696C99.0768 29.7581 99.609 29.2794 99.609 28.3757C99.609 27.5578 99.1054 27.2113 98.3589 27.2113H98.3553Z" fill="#EC5A04"/>
<path d="M107.758 32.8561H102.439V32.5418C102.586 32.5347 102.943 32.4882 103.047 32.4454C103.247 32.3597 103.307 32.2096 103.307 32.0203V27.727C103.307 27.5341 103.254 27.3983 103.047 27.3019C102.89 27.234 102.586 27.1626 102.439 27.1555V26.834H107.436V28.327H107.115C106.994 27.9377 106.551 27.3019 106.151 27.234C105.951 27.1983 105.683 27.1983 105.422 27.1983H104.518V29.5522H105.161C105.665 29.5522 105.811 29.4057 105.918 29.2843C106.051 29.145 106.172 28.7699 106.204 28.5449H106.526V30.9774H106.204C106.179 30.7237 106.029 30.3094 105.918 30.188C105.815 30.0665 105.665 29.9201 105.161 29.9201H104.518V31.6917C104.518 32.4132 104.675 32.4918 105.518 32.4918C105.961 32.4918 106.622 32.499 106.829 32.2847C107.097 32.006 107.472 31.2952 107.569 31.0345H107.872L107.758 32.8597V32.8561Z" fill="#EC5A04"/>
<path d="M22.8228 20.9704L36.1565 18.0451L22.8228 15.1161L25.9981 10.1584L21.0368 13.3338L18.1115 0L15.1825 13.3338L10.2248 10.1584L13.4002 15.1161L0.0664062 18.0451L13.4002 20.9704L10.2248 25.9317L15.1825 22.7563L18.1115 36.0901L21.0368 22.7563L25.9981 25.9317L22.8228 20.9704Z" fill="#EC5A04"/>
<path d="M15.3132 3.21484L14.9203 5.00435C10.0733 6.18664 6.25857 10.005 5.07271 14.852L3.2832 15.2449C4.4262 9.15486 9.22322 4.35784 15.3132 3.21484Z" fill="#EC5A04"/>
<path d="M32.9422 15.2449L31.1526 14.852C29.9704 10.005 26.152 6.19021 21.305 5.00435L20.9121 3.21484C26.9986 4.35784 31.7992 9.15486 32.9422 15.2449Z" fill="#EC5A04"/>
<path d="M32.9422 20.8438C31.7992 26.9302 27.0021 31.7308 20.9121 32.8738L21.305 31.0843C26.152 29.902 29.9668 26.0837 31.1526 21.2367L32.9422 20.8438Z" fill="#EC5A04"/>
<path d="M15.3132 32.8738C9.22679 31.7308 4.4262 26.9338 3.2832 20.8438L5.07271 21.2367C6.25499 26.0837 10.0733 29.8984 14.9203 31.0843L15.3132 32.8738Z" fill="#EC5A04"/>
</svg>
