<svg width="203" height="67" viewBox="0 0 203 67" fill="none" xmlns="http://www.w3.org/2000/svg">
<path d="M85.2344 6.30664C88.0489 6.30664 90.1467 7.05587 91.5214 8.54782C92.8961 10.0398 93.5867 12.2288 93.5867 15.115V19.7472C93.5867 22.6334 92.8961 24.8224 91.5214 26.3144C90.1467 27.8063 88.0489 28.5555 85.2344 28.5555H82.5893V41.944H76.9863V6.30664H85.2344ZM82.5828 11.4014V23.4673H85.2279C86.1074 23.4673 86.7915 23.2327 87.2671 22.7571C87.7427 22.2815 87.9772 21.402 87.9772 20.112V14.7632C87.9772 13.4732 87.7362 12.5937 87.2671 12.1181C86.7915 11.6425 86.1139 11.4079 85.2279 11.4079H82.5828V11.4014Z" fill="white"/>
<path d="M96.1797 6.30664H101.783V41.944H96.1797V6.30664Z" fill="white"/>
<path d="M105.391 14.8651C105.391 11.9789 106.12 9.76382 107.58 8.21975C109.039 6.67568 111.143 5.90039 113.893 5.90039C116.642 5.90039 118.746 6.67568 120.206 8.21975C121.665 9.76382 122.395 11.9789 122.395 14.8651V33.4004C122.395 36.2866 121.665 38.5017 120.206 40.0458C118.746 41.5898 116.642 42.3651 113.893 42.3651C111.143 42.3651 109.039 41.5963 107.58 40.0458C106.12 38.5017 105.391 36.2866 105.391 33.4004V14.8651ZM110.994 33.7587C110.994 35.0487 111.254 35.9543 111.782 36.482C112.31 37.0098 113.013 37.2704 113.893 37.2704C114.772 37.2704 115.476 37.0098 116.004 36.482C116.531 35.9543 116.792 35.0487 116.792 33.7587V14.5133C116.792 13.2233 116.531 12.3177 116.004 11.79C115.476 11.2623 114.772 11.0017 113.893 11.0017C113.013 11.0017 112.303 11.2623 111.782 11.79C111.261 12.3177 110.994 13.2233 110.994 14.5133V33.7587Z" fill="white"/>
<path d="M130.998 16.1379V41.9505H125.955V6.30664H132.978L138.731 27.6369V6.30664H143.722V41.944H137.969L130.991 16.1313L130.998 16.1379Z" fill="white"/>
<path d="M153.352 21.3303H161.04V26.4186H153.352V36.8557H163.027V41.944H147.756V6.30664H163.027V11.3949H153.352V21.3238V21.3303Z" fill="white"/>
<path d="M172.085 21.3303H179.772V26.4186H172.085V36.8557H181.76V41.944H166.488V6.30664H181.76V11.3949H172.085V21.3238V21.3303Z" fill="white"/>
<path d="M196.935 41.9505C196.87 41.7159 196.798 41.4944 196.733 41.2859C196.668 41.084 196.603 40.8299 196.557 40.5237C196.511 40.2175 196.472 39.8266 196.453 39.351C196.433 38.8754 196.427 38.2825 196.427 37.5658V31.9629C196.427 30.3016 196.14 29.1289 195.56 28.4513C194.98 27.7737 194.049 27.4349 192.759 27.4349H190.824V41.944H185.221V6.30664H193.671C196.589 6.30664 198.7 6.98421 200.01 8.34585C201.313 9.70098 201.971 11.7597 201.971 14.5091V17.3106C201.971 20.9785 200.746 23.3891 198.303 24.5423C199.73 25.1221 200.707 26.0603 201.228 27.3698C201.756 28.6793 202.017 30.2625 202.017 32.1323V37.631C202.017 38.517 202.049 39.2858 202.121 39.9504C202.186 40.6149 202.355 41.2794 202.629 41.9635H196.928L196.935 41.9505ZM190.824 11.4014V22.3467H193.013C194.062 22.3467 194.889 22.0731 195.482 21.5323C196.075 20.9916 196.374 20.0078 196.374 18.581V15.0694C196.374 13.7794 196.146 12.8477 195.69 12.2679C195.234 11.6946 194.511 11.4014 193.527 11.4014H190.83H190.824Z" fill="white"/>
<path d="M88.52 60.3828V59.8095C88.7872 59.7965 89.3735 59.7443 89.569 59.6662C89.9468 59.5228 90.0446 59.2362 90.0446 58.8909V55.0405H85.1322V58.7931C85.1322 59.145 85.243 59.4121 85.5948 59.588C85.7707 59.6857 86.357 59.7769 86.6242 59.8095V60.3828H81.3926V59.8095C81.6467 59.7965 82.2461 59.7313 82.4545 59.6662C82.8194 59.5228 82.9301 59.2362 82.9301 58.8713V51.0272C82.9301 50.6754 82.8063 50.4278 82.4545 50.2519C82.1874 50.1412 81.6597 49.9978 81.3926 49.9848V49.3984H86.6242V49.9848C86.357 49.9978 85.8619 50.0825 85.5948 50.1737C85.2169 50.304 85.1322 50.6037 85.1322 50.949V54.2912H90.0446V51.0272C90.0446 50.6754 89.9208 50.4278 89.569 50.2519C89.3149 50.1412 88.7937 49.9978 88.52 49.9848V49.3984H93.7647V49.9848C93.4975 49.9978 92.9698 50.0825 92.7027 50.1737C92.3379 50.304 92.2401 50.6037 92.2401 50.949V58.7931C92.2401 59.145 92.3509 59.4121 92.7027 59.588C92.9112 59.6987 93.4975 59.7769 93.7647 59.8095V60.3828H88.52Z" fill="white"/>
<path d="M105.045 60.3828H95.3438V59.8095C95.6109 59.7965 96.2624 59.7118 96.4513 59.6336C96.8162 59.4772 96.9269 59.2036 96.9269 58.8583V51.0272C96.9269 50.6754 96.8292 50.4278 96.4513 50.2519C96.1647 50.1281 95.6109 49.9978 95.3438 49.9848V49.3984H104.458V52.1217H103.872C103.65 51.4116 102.843 50.2519 102.113 50.1281C101.748 50.063 101.259 50.063 100.784 50.063H99.1355V54.3564H100.308C101.227 54.3564 101.494 54.0893 101.689 53.8678C101.93 53.6137 102.152 52.9296 102.211 52.5191H102.797V56.9559H102.211C102.165 56.4933 101.891 55.7376 101.689 55.5161C101.5 55.2946 101.227 55.0274 100.308 55.0274H99.1355V58.2589C99.1355 59.5749 99.4222 59.7183 100.96 59.7183C101.768 59.7183 102.973 59.7313 103.351 59.3404C103.839 58.8322 104.523 57.5357 104.699 57.0601H105.253L105.045 60.3893V60.3828Z" fill="white"/>
<path d="M112.384 60.3868V59.8135C112.925 59.7679 113.876 59.6246 113.876 59.3705C113.876 59.2728 113.844 59.149 113.798 59.0187L112.88 56.6407H109.062C108.853 57.1488 108.619 57.7808 108.475 58.2434C108.332 58.719 108.286 58.9535 108.286 59.1294C108.286 59.6181 109.361 59.7614 109.902 59.8135V60.3868H105.576V59.8135C105.863 59.8005 106.351 59.7027 106.625 59.5268C107.003 59.3053 107.257 59.0056 107.479 58.4519C108.619 55.6764 109.922 52.3538 111.173 49.2461H112.267C113.14 51.383 115.661 57.9111 116.007 58.7385C116.15 59.0903 116.339 59.3249 116.691 59.5464C116.978 59.7027 117.388 59.7874 117.688 59.8135V60.3868H112.397H112.384ZM110.938 51.813L109.335 55.9305H112.567L110.932 51.813H110.938Z" fill="white"/>
<path d="M127.557 60.3828H118.221V59.8095C118.488 59.7769 119.094 59.7118 119.283 59.6531C119.648 59.5098 119.758 59.2101 119.758 58.8583V51.0467C119.758 50.6949 119.661 50.4474 119.283 50.2519C118.996 50.1281 118.488 50.0109 118.221 49.9848V49.3984H123.544V49.9848C123.276 49.9978 122.703 50.0825 122.416 50.1737C122.039 50.3171 121.954 50.6168 121.954 50.9686V58.2719C121.954 59.601 122.162 59.7313 123.791 59.7313C124.599 59.7313 125.485 59.6662 125.817 59.3339C126.293 58.8453 126.944 57.653 127.211 56.9885H127.785L127.544 60.3828H127.557Z" fill="white"/>
<path d="M137.107 52.4657C136.899 51.7556 136.078 50.2311 135.394 50.1203C134.996 50.0877 134.54 50.0551 134.143 50.0551H133.732V58.7527C133.732 59.1046 133.843 59.4042 134.221 59.5606C134.429 59.6583 135.159 59.7821 135.459 59.8147V60.388H129.804V59.8147C130.09 59.7821 130.82 59.717 131.042 59.6388C131.419 59.4824 131.53 59.1762 131.53 58.8309V50.0551H131.133C130.8 50.0551 130.247 50.0877 129.862 50.1203C129.178 50.2311 128.357 51.7686 128.149 52.4657H127.562V49.4102H137.674V52.4657H137.101H137.107Z" fill="white"/>
<path d="M145.885 60.3828V59.8095C146.152 59.7965 146.739 59.7443 146.934 59.6662C147.312 59.5228 147.41 59.2362 147.41 58.8909V55.0405H142.497V58.7931C142.497 59.145 142.608 59.4121 142.96 59.588C143.136 59.6857 143.722 59.7769 143.989 59.8095V60.3828H138.758V59.8095C139.012 59.7965 139.611 59.7313 139.82 59.6662C140.185 59.5228 140.295 59.2362 140.295 58.8713V51.0272C140.295 50.6754 140.172 50.4278 139.82 50.2519C139.553 50.1412 139.025 49.9978 138.758 49.9848V49.3984H143.989V49.9848C143.722 49.9978 143.227 50.0825 142.96 50.1737C142.582 50.304 142.497 50.6037 142.497 50.949V54.2912H147.41V51.0272C147.41 50.6754 147.286 50.4278 146.934 50.2519C146.68 50.1412 146.159 49.9978 145.885 49.9848V49.3984H151.13V49.9848C150.863 49.9978 150.335 50.0825 150.068 50.1737C149.703 50.304 149.605 50.6037 149.605 50.949V58.7931C149.605 59.145 149.716 59.4121 150.068 59.588C150.276 59.6987 150.863 59.7769 151.13 59.8095V60.3828H145.885Z" fill="white"/>
<path d="M158.055 60.6697C155.11 60.6697 152.68 58.5132 152.68 54.995C152.68 51.4769 155.09 49.1445 158.276 49.1445C159.481 49.1445 160.413 49.4768 161.11 49.8742L161.508 49.3986H162.14L162.218 53.3598H161.553C160.999 51.314 160.081 49.8416 158.367 49.8416C156.374 49.8416 155.149 51.6333 155.149 54.8191C155.149 58.005 156.589 59.6859 158.68 59.6859C160.328 59.6859 161.345 58.6565 162.022 57.2753L162.641 57.6271C161.801 59.5426 160.328 60.6697 158.048 60.6697H158.055Z" fill="white"/>
<path d="M169.597 60.3868V59.8135C170.138 59.7679 171.089 59.6246 171.089 59.3705C171.089 59.2728 171.057 59.149 171.011 59.0187L170.092 56.6407H166.275C166.066 57.1488 165.832 57.7808 165.688 58.2434C165.545 58.719 165.499 58.9535 165.499 59.1294C165.499 59.6181 166.574 59.7614 167.115 59.8135V60.3868H162.789V59.8135C163.076 59.8005 163.564 59.7027 163.838 59.5268C164.216 59.3053 164.47 59.0056 164.691 58.4519C165.832 55.6764 167.135 52.3538 168.385 49.2461H169.48C170.353 51.383 172.874 57.9111 173.22 58.7385C173.363 59.0903 173.552 59.3249 173.904 59.5464C174.19 59.7027 174.601 59.7874 174.901 59.8135V60.3868H169.61H169.597ZM168.151 51.813L166.548 55.9305H169.78L168.144 51.813H168.151Z" fill="white"/>
<path d="M183.487 60.388C182.093 58.2185 181.253 57.0588 179.937 55.4301H179.175V58.8374C179.175 59.1892 179.272 59.4694 179.637 59.6323C179.826 59.7105 180.412 59.7886 180.686 59.8212V60.3945H175.441V59.8212C175.709 59.7886 176.314 59.7235 176.503 59.6648C176.868 59.5085 176.979 59.2218 176.979 58.87V51.0259C176.979 50.6741 176.881 50.3744 176.503 50.218C176.217 50.1203 175.695 50.0291 175.441 49.9965V49.4102H181.051C183.331 49.4102 184.888 50.205 184.888 52.0227C184.888 53.7166 183.794 54.4919 182.211 54.9675C183.162 56.2184 183.781 57.0458 184.888 58.4856C185.318 59.0264 185.729 59.4498 186.159 59.6453C186.426 59.7561 186.869 59.8017 187.09 59.8212V60.3945H183.494L183.487 60.388ZM180.126 50.0877H179.175V54.733H179.969C181.442 54.733 182.413 53.8599 182.413 52.2116C182.413 50.7197 181.494 50.0877 180.132 50.0877H180.126Z" fill="white"/>
<path d="M197.279 60.3828H187.578V59.8095C187.845 59.7965 188.497 59.7118 188.686 59.6336C189.051 59.4772 189.161 59.2036 189.161 58.8583V51.0272C189.161 50.6754 189.064 50.4278 188.686 50.2519C188.399 50.1281 187.845 49.9978 187.578 49.9848V49.3984H196.693V52.1217H196.106C195.885 51.4116 195.077 50.2519 194.347 50.1281C193.982 50.063 193.494 50.063 193.018 50.063H191.37V54.3564H192.543C193.461 54.3564 193.728 54.0893 193.924 53.8678C194.165 53.6137 194.386 52.9296 194.445 52.5191H195.031V56.9559H194.445C194.399 56.4933 194.126 55.7376 193.924 55.5161C193.735 55.2946 193.461 55.0274 192.543 55.0274H191.37V58.2589C191.37 59.5749 191.657 59.7183 193.194 59.7183C194.002 59.7183 195.207 59.7313 195.585 59.3404C196.074 58.8322 196.758 57.5357 196.934 57.0601H197.488L197.279 60.3893V60.3828Z" fill="white"/>
<path d="M42.3511 38.703L66.6718 33.3671L42.3511 28.0248L48.143 18.9819L39.0936 24.7738L33.7578 0.453125L28.4154 24.7738L19.3725 18.9819L25.1644 28.0248L0.84375 33.3671L25.1644 38.703L19.3725 47.7524L28.4154 41.9605L33.7578 66.2812L39.0936 41.9605L48.143 47.7524L42.3511 38.703Z" fill="white"/>
<path d="M28.6497 6.31836L27.9331 9.5824C19.0921 11.7389 12.1341 18.7035 9.97107 27.5444L6.70703 28.261C8.79185 17.1529 17.5416 8.40318 28.6497 6.31836Z" fill="white"/>
<path d="M60.806 28.261L57.5419 27.5444C55.3854 18.7035 48.4209 11.7454 39.5799 9.5824L38.8633 6.31836C49.9649 8.40318 58.7211 17.1529 60.806 28.261Z" fill="white"/>
<path d="M60.806 38.4707C58.7211 49.5723 49.9714 58.3286 38.8633 60.4134L39.5799 57.1493C48.4209 54.9929 55.3789 48.0283 57.5419 39.1874L60.806 38.4707Z" fill="white"/>
<path d="M28.6497 60.4134C17.5481 58.3286 8.79185 49.5789 6.70703 38.4707L9.97107 39.1874C12.1276 48.0283 19.0921 54.9864 27.9331 57.1493L28.6497 60.4134Z" fill="white"/>
</svg>
