<svg width="137" height="136" viewBox="0 0 137 136" fill="none" xmlns="http://www.w3.org/2000/svg">
<g filter="url(#filter0_f_1712_16743)">
<path d="M82.2629 76.7821L121.17 68.2461L82.2629 59.6997L91.5284 45.2333L77.0516 54.4989L68.5156 15.5918L59.9692 54.4989L45.5028 45.2333L54.7684 59.6997L15.8613 68.2461L54.7684 76.7821L45.5028 91.2589L59.9692 81.9933L68.5156 120.9L77.0516 81.9933L91.5284 91.2589L82.2629 76.7821Z" fill="white"/>
<path d="M60.3411 24.9746L59.1947 30.1963C45.0514 33.6461 33.9202 44.7877 30.4599 58.931L25.2383 60.0775C28.5735 42.3072 42.5708 28.3098 60.3411 24.9746Z" fill="white"/>
<path d="M111.79 60.0775L106.569 58.931C103.119 44.7877 91.9773 33.6565 77.834 30.1963L76.6875 24.9746C94.4474 28.3098 108.455 42.3072 111.79 60.0775Z" fill="white"/>
<path d="M111.79 76.418C108.455 94.1779 94.4578 108.186 76.6875 111.521L77.834 106.299C91.9773 102.849 103.108 91.7077 106.569 77.5644L111.79 76.418Z" fill="white"/>
<path d="M60.3411 111.521C42.5813 108.186 28.5735 94.1883 25.2383 76.418L30.4599 77.5644C33.9098 91.7077 45.0514 102.839 59.1947 106.299L60.3411 111.521Z" fill="white"/>
</g>
<defs>
<filter id="filter0_f_1712_16743" x="0.873133" y="0.603601" width="135.285" height="135.285" filterUnits="userSpaceOnUse" color-interpolation-filters="sRGB">
<feFlood flood-opacity="0" result="BackgroundImageFix"/>
<feBlend mode="normal" in="SourceGraphic" in2="BackgroundImageFix" result="shape"/>
<feGaussianBlur stdDeviation="7.4941" result="effect1_foregroundBlur_1712_16743"/>
</filter>
</defs>
</svg>
