<svg width="84" height="59" viewBox="0 0 84 59" fill="none" xmlns="http://www.w3.org/2000/svg">
<path d="M66.9023 46.3742L64.942 43.3109C70.086 34.8479 70.081 24.1339 64.942 15.6659L66.9023 12.6025C73.8412 22.7501 73.8462 36.2217 66.9023 46.3742Z" fill="#ED5A04"/>
<path d="M17.4092 46.3728C10.4703 36.2252 10.4653 22.7536 17.4092 12.6011L19.3695 15.6644C14.2255 24.1274 14.2305 34.8415 19.3695 43.3095L17.4092 46.3728Z" fill="#ED5A04"/>
<path d="M43.6377 35.4245L56.7066 43.7907L48.3433 30.7189L54.8806 29.2863L48.3404 27.8507L56.7066 14.7818L43.6348 23.1451L42.2021 16.6078L40.7695 23.1451L27.6977 14.7818L36.0639 27.8507L29.5237 29.2863L36.061 30.7189L27.6977 43.7907L40.7666 35.4245L42.2021 41.9647L43.6377 35.4245Z" fill="#ED5A04"/>
</svg>
