<svg width="44" height="44" viewBox="0 0 44 44" fill="none" xmlns="http://www.w3.org/2000/svg">
<path d="M27.8733 25.5343L43.6445 22.0742L27.8733 18.6099L31.6292 12.7458L25.7609 16.5017L22.3008 0.730469L18.8364 16.5017L12.9724 12.7458L16.7283 18.6099L0.957031 22.0742L16.7283 25.5343L12.9724 31.4026L18.8364 27.6467L22.3008 43.418L25.7609 27.6467L31.6292 31.4026L27.8733 25.5343Z" fill="#ED5A04"/>
<path d="M18.987 4.5332L18.5223 6.64983C12.7892 8.04825 8.27708 12.5646 6.87444 18.2976L4.75781 18.7624C6.10975 11.5591 11.7837 5.88514 18.987 4.5332Z" fill="#ED5A04"/>
<path d="M39.8424 18.7624L37.7258 18.2976C36.3274 12.5646 31.8111 8.05247 26.078 6.64983L25.6133 4.5332C32.8124 5.88514 38.4905 11.5591 39.8424 18.7624Z" fill="#ED5A04"/>
<path d="M39.8424 25.3867C38.4905 32.5858 32.8166 38.2639 25.6133 39.6159L26.078 37.4993C31.8111 36.1008 36.3232 31.5845 37.7258 25.8514L39.8424 25.3867Z" fill="#ED5A04"/>
<path d="M18.987 39.6159C11.7879 38.2639 6.10975 32.59 4.75781 25.3867L6.87444 25.8514C8.27286 31.5845 12.7892 36.0966 18.5223 37.4993L18.987 39.6159Z" fill="#ED5A04"/>
</svg>
