<svg width="136" height="137" viewBox="0 0 136 137" fill="none" xmlns="http://www.w3.org/2000/svg">
<g filter="url(#filter0_f_1703_16382)">
<path d="M82.1086 76.9364L121.016 68.4004L82.1086 59.854L91.3741 45.3876L76.8973 54.6532L68.3613 15.7461L59.8149 54.6532L45.3485 45.3876L54.6141 59.854L15.707 68.4004L54.6141 76.9364L45.3485 91.4132L59.8149 82.1476L68.3613 121.055L76.8973 82.1476L91.3741 91.4132L82.1086 76.9364Z" fill="white"/>
<path d="M60.1888 25.1289L59.0423 30.3506C44.899 33.8004 33.7679 44.942 30.3076 59.0853L25.0859 60.2318C28.4211 42.4615 42.4185 28.4641 60.1888 25.1289Z" fill="white"/>
<path d="M111.638 60.2318L106.416 59.0853C102.967 44.942 91.8249 33.8108 77.6816 30.3506L76.5352 25.1289C94.295 28.4641 108.303 42.4615 111.638 60.2318Z" fill="white"/>
<path d="M111.638 76.5723C108.303 94.3321 94.3055 108.34 76.5352 111.675L77.6816 106.453C91.8249 103.004 102.956 91.862 106.416 77.7187L111.638 76.5723Z" fill="white"/>
<path d="M60.1888 111.675C42.4289 108.34 28.4211 94.3426 25.0859 76.5723L30.3076 77.7187C33.7574 91.862 44.899 102.993 59.0423 106.453L60.1888 111.675Z" fill="white"/>
</g>
<defs>
<filter id="filter0_f_1703_16382" x="0.718836" y="0.757898" width="135.285" height="135.285" filterUnits="userSpaceOnUse" color-interpolation-filters="sRGB">
<feFlood flood-opacity="0" result="BackgroundImageFix"/>
<feBlend mode="normal" in="SourceGraphic" in2="BackgroundImageFix" result="shape"/>
<feGaussianBlur stdDeviation="7.4941" result="effect1_foregroundBlur_1703_16382"/>
</filter>
</defs>
</svg>
