<svg width="66" height="66" viewBox="0 0 66 66" fill="none" xmlns="http://www.w3.org/2000/svg">
<path d="M8.63923 25.0008H24.3963V9.6249C24.3963 9.58678 24.7039 8.9565 24.7776 8.98954L32.4782 16.7918C32.1605 22.3831 34.4326 29.2196 28.2263 32.2592C25.6976 33.4969 21.9108 33.0242 19.199 32.8692C17.5191 32.7726 16.8406 33.4639 15.3767 32.3685C13.9382 31.2935 10.159 27.25 9.02045 25.7632C8.82476 25.5065 8.52995 25.443 8.64177 24.9983L8.63923 25.0008Z" fill="#F8D559"/>
<path d="M8.64062 43.2176C10.2773 40.9658 12.3893 39.0852 14.3615 37.1206C14.9587 36.5259 15.1646 35.6211 16.1913 35.3924C17.4951 35.1001 25.0661 35.1586 26.497 35.4C27.8338 35.6262 30.3194 37.2985 31.1377 38.3837C33.5953 41.6368 32.1746 47.7871 32.4771 51.6807C30.7057 53.9477 28.3395 55.6073 26.2632 57.5388C25.7142 58.0496 25.3711 59.0255 24.3952 59.2288V43.5988C24.3952 43.5709 24.0419 43.2176 24.014 43.2176H8.64062Z" fill="#F8D559"/>
<path d="M58.7064 43.2171H43.3305C43.3025 43.2171 42.9493 43.5703 42.9493 43.5983V59.2283C42.5045 59.3401 42.441 59.0453 42.1843 58.8496C41.3964 58.2448 35.0173 51.9241 34.8674 51.426C35.1165 47.8324 34.0084 42.8536 35.6527 39.6082C36.4253 38.0833 39.0862 35.6257 40.8043 35.3563C43.915 34.8709 48.1822 35.6511 51.4225 35.3817C53.7454 38.1011 56.5233 40.3808 58.7064 43.2196V43.2171Z" fill="#F8D559"/>
<path d="M58.9625 25.0009L51.4143 32.8286C46.0848 32.821 38.2774 34.5822 35.5377 28.4776C34.6813 26.5665 34.4602 18.7616 35.1337 16.8021C35.2226 16.548 38.2724 13.2695 38.7476 12.7917C39.9879 11.5387 41.7034 10.3087 42.9538 8.99219V24.6222C42.9538 24.6502 43.307 25.0034 43.335 25.0034H58.965L58.9625 25.0009Z" fill="#F8D559"/>
<g filter="url(#filter0_f_1412_48977)">
<path d="M7.6861 23.9285H23.4432V8.55264C23.4432 8.51452 23.7507 7.88423 23.8244 7.91727L31.5251 15.7196C31.2074 21.3108 33.4795 28.1474 27.2732 31.187C24.7444 32.4247 20.9577 31.9519 18.2459 31.7969C16.566 31.7003 15.8874 32.3916 14.4235 31.2962C12.9851 30.2212 9.2059 26.1777 8.06732 24.691C7.87163 24.4343 7.57682 24.3707 7.68865 23.926L7.6861 23.9285Z" fill="#F8D559"/>
<path d="M7.6875 42.1434C9.32421 39.8916 11.4362 38.0109 13.4083 36.0464C14.0056 35.4517 14.2115 34.5469 15.2382 34.3182C16.542 34.0259 24.113 34.0844 25.5439 34.3258C26.8807 34.552 29.3662 36.2243 30.1846 37.3095C32.6422 40.5626 31.2215 46.7129 31.5239 50.6065C29.7525 52.8735 27.3864 54.533 25.31 56.4645C24.7611 56.9754 24.418 57.9513 23.4421 58.1546V42.5246C23.4421 42.4966 23.0888 42.1434 23.0608 42.1434H7.6875Z" fill="#F8D559"/>
<path d="M57.7533 42.1448H42.3774C42.3494 42.1448 41.9961 42.4981 41.9961 42.526V58.1561C41.5514 58.2679 41.4878 57.9731 41.2312 57.7774C40.4433 57.1725 34.0642 50.8519 33.9143 50.3537C34.1633 46.7601 33.0553 41.7814 34.6996 38.5359C35.4722 37.011 38.1331 34.5534 39.8511 34.284C42.9619 33.7986 47.229 34.5788 50.4694 34.3094C52.7923 37.0288 55.5701 39.3085 57.7533 42.1473V42.1448Z" fill="#F8D559"/>
<path d="M58.0093 23.9286L50.4612 31.7564C45.1317 31.7487 37.3243 33.51 34.5846 27.4054C33.7281 25.4942 33.507 17.6893 34.1805 15.7299C34.2695 15.4757 37.3192 12.1972 37.7945 11.7194C39.0347 10.4665 40.7502 9.2364 42.0006 7.91992V23.55C42.0006 23.5779 42.3539 23.9312 42.3818 23.9312H58.0119L58.0093 23.9286Z" fill="#F8D559"/>
</g>
<defs>
<filter id="filter0_f_1412_48977" x="0.370822" y="0.622776" width="64.9341" height="64.8502" filterUnits="userSpaceOnUse" color-interpolation-filters="sRGB">
<feFlood flood-opacity="0" result="BackgroundImageFix"/>
<feBlend mode="normal" in="SourceGraphic" in2="BackgroundImageFix" result="shape"/>
<feGaussianBlur stdDeviation="3.64662" result="effect1_foregroundBlur_1412_48977"/>
</filter>
</defs>
</svg>
