<svg width="68" height="69" viewBox="0 0 68 69" fill="none" xmlns="http://www.w3.org/2000/svg">
<path d="M0.220916 22.3221H21.3163V1.73707C21.3163 1.68603 21.7281 0.842213 21.8267 0.886445L32.1363 11.3321C31.7109 18.8176 34.7528 27.9703 26.4439 32.0396C23.0584 33.6966 17.9887 33.0638 14.3583 32.8562C12.1092 32.7269 11.2007 33.6524 9.24091 32.1859C7.3151 30.7467 2.2556 25.3333 0.731289 23.3429C0.469297 22.9992 0.0746088 22.9142 0.224318 22.3187L0.220916 22.3221Z" fill="#54481D"/>
<path d="M0.214844 46.8163C2.40605 43.8017 5.23351 41.2839 7.87384 38.6537C8.67343 37.8575 8.94903 36.6463 10.3236 36.34C12.0691 35.9487 22.2051 36.027 24.1207 36.3502C25.9104 36.6531 29.2381 38.8919 30.3337 40.3448C33.6239 44.6999 31.7219 52.934 32.1268 58.1466C29.7552 61.1816 26.5875 63.4034 23.8077 65.9893C23.0728 66.6732 22.6134 67.9798 21.3069 68.252V47.3267C21.3069 47.2892 20.8339 46.8163 20.7965 46.8163H0.214844Z" fill="#54481D"/>
<path d="M67.251 46.8182H46.6659C46.6285 46.8182 46.1556 47.2912 46.1556 47.3286V68.2539C45.5601 68.4036 45.4751 68.0089 45.1314 67.7469C44.0766 66.9371 35.5364 58.4751 35.3357 57.8083C35.6691 52.9971 34.1856 46.3317 36.387 41.9867C37.4214 39.9452 40.9838 36.655 43.2839 36.2943C47.4485 35.6444 53.1613 36.689 57.4995 36.3283C60.6093 39.969 64.3283 43.021 67.251 46.8216V46.8182Z" fill="#54481D"/>
<path d="M67.5834 22.3209L57.478 32.8006C50.343 32.7904 39.8905 35.1483 36.2227 26.9755C35.076 24.4169 34.78 13.9678 35.6817 11.3445C35.8008 11.0043 39.8837 6.61506 40.52 5.97539C42.1804 4.29796 44.4771 2.65116 46.1511 0.888672V21.814C46.1511 21.8514 46.6241 22.3243 46.6615 22.3243H67.5868L67.5834 22.3209Z" fill="#54481D"/>
</svg>
