<svg width="50" height="59" viewBox="0 0 50 59" fill="none" xmlns="http://www.w3.org/2000/svg">
<path d="M24.7613 19.691C24.789 19.8111 24.7244 19.8943 24.6135 19.9313C21.8875 20.5504 18.3669 20.7721 16.4264 23.0083C14.5968 25.1152 13.9776 29.449 13.5803 32.1749C13.2476 34.4111 13.0259 36.6658 12.7487 38.9205C12.4714 39.1238 12.4622 38.8928 12.4252 38.6617C12.1111 36.6381 11.9632 34.522 11.6675 32.4799C11.2425 29.5506 10.5956 24.5977 8.31322 22.5556C6.27107 20.7167 3.14778 20.5873 0.615885 19.959C0.486518 19.9313 0.366391 19.8481 0.477277 19.7187C0.560442 19.6171 2.66728 19.2659 2.98145 19.2013C6.70538 18.3973 8.91385 17.6673 10.2537 13.8325C11.4088 10.5152 11.8061 6.22759 12.2312 2.7162C12.3051 2.10633 12.3236 1.41329 12.416 0.81266C12.453 0.590888 12.5731 0.341395 12.7487 0.62785C13.1737 3.99139 13.4694 7.42886 14.144 10.7554C14.4951 12.4649 15.0033 14.5163 15.9736 15.9763C17.8956 18.8409 21.7027 18.961 24.7521 19.7095L24.7613 19.691ZM12.6378 16.8172C12.5361 16.808 12.5823 16.8172 12.5639 16.8726C12.4068 17.5102 12.453 18.924 11.9078 19.3491C11.5751 19.6078 11.2055 19.5616 10.8636 19.6818C10.8082 19.7002 10.7712 19.7095 10.7712 19.7742C10.7712 19.8019 11.3071 19.8851 11.3811 19.9035C12.0464 20.0883 12.185 20.4025 12.3328 21.0401C12.453 21.5668 12.4899 22.1213 12.5639 22.6572C12.6655 22.6664 12.6193 22.6572 12.6378 22.6018C12.8133 21.881 12.7025 20.4118 13.4602 20.0237C13.5711 19.9682 13.7466 19.9035 13.8668 19.8758C13.9499 19.8573 14.375 19.8019 14.3935 19.7834V19.6725C14.375 19.654 13.9592 19.6078 13.8668 19.5801C13.0813 19.3676 12.9797 18.998 12.8318 18.2587C12.7394 17.7782 12.7025 17.2792 12.6378 16.7987V16.8172Z" fill="#9C873B"/>
<path d="M49.9566 19.691C49.9843 19.8111 49.9197 19.8943 49.8088 19.9313C47.0828 20.5504 43.5622 20.7721 41.6217 23.0083C39.7921 25.1152 39.173 29.449 38.7756 32.1749C38.443 34.4111 38.2212 36.6658 37.944 38.9205C37.6668 39.1238 37.6575 38.8928 37.6206 38.6617C37.3064 36.6381 37.1585 34.522 36.8628 32.4799C36.4378 29.5506 35.7909 24.5977 33.5085 22.5556C31.4664 20.7167 28.3431 20.5873 25.8112 19.959C25.6818 19.9313 25.5617 19.8481 25.6726 19.7187C25.7558 19.6171 27.8626 19.2659 28.1768 19.2013C31.9007 18.3973 34.1092 17.6673 35.449 13.8325C36.6041 10.5152 37.0014 6.22759 37.4265 2.7162C37.5004 2.10633 37.5189 1.41329 37.6113 0.81266C37.6483 0.590888 37.7684 0.341395 37.944 0.62785C38.369 3.99139 38.6647 7.42886 39.3393 10.7554C39.6904 12.4649 40.1987 14.5163 41.1689 15.9763C43.0909 18.8409 46.898 18.961 49.9474 19.7095L49.9566 19.691ZM37.8331 16.8172C37.7314 16.808 37.7776 16.8172 37.7592 16.8726C37.6021 17.5102 37.6483 18.924 37.1031 19.3491C36.7704 19.6078 36.4008 19.5616 36.0589 19.6818C36.0035 19.7002 35.9665 19.7095 35.9665 19.7742C35.9665 19.8019 36.5025 19.8851 36.5764 19.9035C37.2417 20.0883 37.3803 20.4025 37.5282 21.0401C37.6483 21.5668 37.6852 22.1213 37.7592 22.6572C37.8608 22.6664 37.8146 22.6572 37.8331 22.6018C38.0087 21.881 37.8978 20.4118 38.6555 20.0237C38.7664 19.9682 38.9419 19.9035 39.0621 19.8758C39.1452 19.8573 39.5703 19.8019 39.5888 19.7834V19.6725C39.5703 19.654 39.1545 19.6078 39.0621 19.5801C38.2766 19.3676 38.175 18.998 38.0271 18.2587C37.9347 17.7782 37.8978 17.2792 37.8331 16.7987V16.8172Z" fill="#9C873B"/>
<path d="M37.4801 38.941C37.5078 39.0611 37.4431 39.1443 37.3322 39.1813C34.6063 39.8004 31.0856 40.0221 29.1451 42.2583C27.3155 44.3652 26.6964 48.699 26.2991 51.4249C25.9664 53.6611 25.7446 55.9158 25.4674 58.1705C25.1902 58.3738 25.181 58.1428 25.144 57.9117C24.8298 55.8881 24.682 53.772 24.3863 51.7299C23.9612 48.8006 23.3144 43.8477 21.032 41.8056C18.9898 39.9667 15.8665 39.8373 13.3346 39.209C13.2053 39.1813 13.0851 39.0981 13.196 38.9687C13.2792 38.8671 15.386 38.5159 15.7002 38.4513C19.4241 37.6473 21.6326 36.9173 22.9725 33.0825C24.1275 29.7652 24.5249 25.4776 24.9499 21.9662C25.0239 21.3563 25.0423 20.6633 25.1348 20.0627C25.1717 19.8409 25.2918 19.5914 25.4674 19.8779C25.8925 23.2414 26.1882 26.6789 26.8627 30.0054C27.2139 31.7149 27.7221 33.7663 28.6923 35.2263C30.6144 38.0909 34.4215 38.211 37.4708 38.9595L37.4801 38.941ZM25.3565 36.0672C25.2549 36.058 25.3011 36.0672 25.2826 36.1226C25.1255 36.7602 25.1717 38.174 24.6265 38.5991C24.2939 38.8578 23.9242 38.8116 23.5824 38.9318C23.5269 38.9502 23.4899 38.9595 23.4899 39.0242C23.4899 39.0519 24.0259 39.1351 24.0998 39.1535C24.7651 39.3383 24.9037 39.6525 25.0516 40.2901C25.1717 40.8168 25.2087 41.3713 25.2826 41.9072C25.3842 41.9164 25.338 41.9072 25.3565 41.8518C25.5321 41.131 25.4212 39.6618 26.1789 39.2737C26.2898 39.2182 26.4654 39.1535 26.5855 39.1258C26.6687 39.1073 27.0937 39.0519 27.1122 39.0334V38.9225C27.0937 38.904 26.6779 38.8578 26.5855 38.8301C25.8001 38.6176 25.6984 38.248 25.5506 37.5087C25.4582 37.0282 25.4212 36.5292 25.3565 36.0487V36.0672Z" fill="#9C873B"/>
</svg>
