<svg width="51" height="59" viewBox="0 0 51 59" fill="none" xmlns="http://www.w3.org/2000/svg">
<path d="M25.0933 19.691C25.1211 19.8111 25.0564 19.8943 24.9455 19.9313C22.2195 20.5504 18.6989 20.7721 16.7584 23.0083C14.9288 25.1152 14.3097 29.449 13.9123 32.1749C13.5797 34.4111 13.3579 36.6658 13.0807 38.9205C12.8035 39.1238 12.7942 38.8928 12.7573 38.6617C12.4431 36.6381 12.2953 34.522 11.9996 32.4799C11.5745 29.5506 10.9277 24.5977 8.64525 22.5556C6.6031 20.7167 3.47981 20.5873 0.947916 19.959C0.818549 19.9313 0.698423 19.8481 0.809309 19.7187C0.892473 19.6171 2.99931 19.2659 3.31348 19.2013C7.03741 18.3973 9.24589 17.6673 10.5858 13.8325C11.7408 10.5152 12.1382 6.22759 12.5632 2.7162C12.6372 2.10633 12.6556 1.41329 12.748 0.81266C12.785 0.590888 12.9051 0.341395 13.0807 0.62785C13.5058 3.99139 13.8015 7.42886 14.476 10.7554C14.8271 12.4649 15.3354 14.5163 16.3056 15.9763C18.2277 18.8409 22.0347 18.961 25.0841 19.7095L25.0933 19.691ZM12.9698 16.8172C12.8682 16.808 12.9144 16.8172 12.8959 16.8726C12.7388 17.5102 12.785 18.924 12.2398 19.3491C11.9072 19.6078 11.5375 19.5616 11.1956 19.6818C11.1402 19.7002 11.1032 19.7095 11.1032 19.7742C11.1032 19.8019 11.6392 19.8851 11.7131 19.9035C12.3784 20.0883 12.517 20.4025 12.6649 21.0401C12.785 21.5668 12.822 22.1213 12.8959 22.6572C12.9975 22.6664 12.9513 22.6572 12.9698 22.6018C13.1454 21.881 13.0345 20.4118 13.7922 20.0237C13.9031 19.9682 14.0787 19.9035 14.1988 19.8758C14.282 19.8573 14.707 19.8019 14.7255 19.7834V19.6725C14.707 19.654 14.2912 19.6078 14.1988 19.5801C13.4134 19.3676 13.3117 18.998 13.1639 18.2587C13.0715 17.7782 13.0345 17.2792 12.9698 16.7987V16.8172Z" fill="white"/>
<path d="M50.2887 19.691C50.3164 19.8111 50.2517 19.8943 50.1408 19.9313C47.4149 20.5504 43.8942 20.7721 41.9537 23.0083C40.1241 25.1152 39.505 29.449 39.1077 32.1749C38.775 34.4111 38.5532 36.6658 38.276 38.9205C37.9988 39.1238 37.9896 38.8928 37.9526 38.6617C37.6384 36.6381 37.4906 34.522 37.1949 32.4799C36.7698 29.5506 36.123 24.5977 33.8406 22.5556C31.7984 20.7167 28.6751 20.5873 26.1432 19.959C26.0139 19.9313 25.8937 19.8481 26.0046 19.7187C26.0878 19.6171 28.1946 19.2659 28.5088 19.2013C32.2327 18.3973 34.4412 17.6673 35.7811 13.8325C36.9361 10.5152 37.3335 6.22759 37.7585 2.7162C37.8325 2.10633 37.8509 1.41329 37.9433 0.81266C37.9803 0.590888 38.1004 0.341395 38.276 0.62785C38.7011 3.99139 38.9968 7.42886 39.6713 10.7554C40.0225 12.4649 40.5307 14.5163 41.5009 15.9763C43.423 18.8409 47.2301 18.961 50.2794 19.7095L50.2887 19.691ZM38.1651 16.8172C38.0635 16.808 38.1097 16.8172 38.0912 16.8726C37.9341 17.5102 37.9803 18.924 37.4351 19.3491C37.1025 19.6078 36.7328 19.5616 36.3909 19.6818C36.3355 19.7002 36.2985 19.7095 36.2985 19.7742C36.2985 19.8019 36.8345 19.8851 36.9084 19.9035C37.5737 20.0883 37.7123 20.4025 37.8602 21.0401C37.9803 21.5668 38.0173 22.1213 38.0912 22.6572C38.1928 22.6664 38.1466 22.6572 38.1651 22.6018C38.3407 21.881 38.2298 20.4118 38.9875 20.0237C39.0984 19.9682 39.274 19.9035 39.3941 19.8758C39.4773 19.8573 39.9023 19.8019 39.9208 19.7834V19.6725C39.9023 19.654 39.4865 19.6078 39.3941 19.5801C38.6087 19.3676 38.507 18.998 38.3592 18.2587C38.2668 17.7782 38.2298 17.2792 38.1651 16.7987V16.8172Z" fill="white"/>
<path d="M37.8121 38.941C37.8398 39.0611 37.7751 39.1443 37.6642 39.1813C34.9383 39.8004 31.4177 40.0221 29.4772 42.2583C27.6475 44.3652 27.0284 48.699 26.6311 51.4249C26.2984 53.6611 26.0767 55.9158 25.7994 58.1705C25.5222 58.3738 25.513 58.1428 25.476 57.9117C25.1618 55.8881 25.014 53.772 24.7183 51.7299C24.2932 48.8006 23.6464 43.8477 21.364 41.8056C19.3219 39.9667 16.1986 39.8373 13.6667 39.209C13.5373 39.1813 13.4172 39.0981 13.5281 38.9687C13.6112 38.8671 15.7181 38.5159 16.0322 38.4513C19.7562 37.6473 21.9646 36.9173 23.3045 33.0825C24.4596 29.7652 24.8569 25.4776 25.282 21.9662C25.3559 21.3563 25.3744 20.6633 25.4668 20.0627C25.5037 19.8409 25.6239 19.5914 25.7994 19.8779C26.2245 23.2414 26.5202 26.6789 27.1948 30.0054C27.5459 31.7149 28.0541 33.7663 29.0244 35.2263C30.9464 38.0909 34.7535 38.211 37.8029 38.9595L37.8121 38.941ZM25.6886 36.0672C25.5869 36.058 25.6331 36.0672 25.6146 36.1226C25.4575 36.7602 25.5037 38.174 24.9586 38.5991C24.6259 38.8578 24.2563 38.8116 23.9144 38.9318C23.8589 38.9502 23.822 38.9595 23.822 39.0242C23.822 39.0519 24.3579 39.1351 24.4319 39.1535C25.0972 39.3383 25.2358 39.6525 25.3836 40.2901C25.5037 40.8168 25.5407 41.3713 25.6146 41.9072C25.7163 41.9164 25.6701 41.9072 25.6886 41.8518C25.8641 41.131 25.7532 39.6618 26.511 39.2737C26.6218 39.2182 26.7974 39.1535 26.9175 39.1258C27.0007 39.1073 27.4258 39.0519 27.4443 39.0334V38.9225C27.4258 38.904 27.0099 38.8578 26.9175 38.8301C26.1321 38.6176 26.0305 38.248 25.8826 37.5087C25.7902 37.0282 25.7532 36.5292 25.6886 36.0487V36.0672Z" fill="white"/>
</svg>
