<svg width="113" height="29" viewBox="0 0 113 29" fill="none" xmlns="http://www.w3.org/2000/svg">
<path d="M39.1241 20.8988L35.0781 7.17983H39.2313L41.107 15.6202H41.2141L43.4381 7.17983H46.7071L48.9311 15.647H49.0382L50.9139 7.17983H55.0671L51.0211 20.8988H47.4573L45.1262 13.2355H45.019L42.6879 20.8988H39.1241Z" fill="#1A1A1A"/>
<path d="M57.9961 21.0596C57.3396 21.0596 56.7591 20.9524 56.2544 20.738C55.7543 20.5192 55.3613 20.1887 55.0755 19.7466C54.7896 19.3045 54.6467 18.7418 54.6467 18.0585C54.6467 17.4958 54.7428 17.0158 54.9348 16.6183C55.1268 16.2164 55.3948 15.8882 55.7386 15.6336C56.0825 15.3791 56.4822 15.1848 56.9377 15.0508C57.3977 14.9168 57.8934 14.8298 58.4248 14.7896C59.0009 14.7449 59.4631 14.6913 59.8115 14.6288C60.1642 14.5618 60.4188 14.4703 60.5751 14.3541C60.7314 14.2336 60.8096 14.075 60.8096 13.8785V13.8517C60.8096 13.5838 60.7068 13.3784 60.5014 13.2355C60.296 13.0926 60.0325 13.0211 59.711 13.0211C59.3582 13.0211 59.0701 13.0993 58.8468 13.2556C58.628 13.4074 58.4963 13.6419 58.4516 13.9589H55.0487C55.0933 13.3337 55.2921 12.7576 55.6449 12.2307C56.0021 11.6992 56.5224 11.275 57.2057 10.9579C57.8889 10.6364 58.7419 10.4756 59.7646 10.4756C60.5014 10.4756 61.1624 10.5627 61.7474 10.7368C62.3324 10.9065 62.8303 11.1455 63.2412 11.4536C63.652 11.7573 63.9647 12.1145 64.179 12.5254C64.3978 12.9318 64.5072 13.3739 64.5072 13.8517V20.8988H61.0507V19.4519H60.9703C60.7649 19.8359 60.5148 20.1463 60.2201 20.383C59.9298 20.6197 59.5971 20.7916 59.222 20.8988C58.8513 21.006 58.4427 21.0596 57.9961 21.0596ZM59.2019 18.7284C59.4832 18.7284 59.7467 18.6704 59.9923 18.5542C60.2424 18.4381 60.4456 18.2707 60.6019 18.0518C60.7582 17.833 60.8364 17.5673 60.8364 17.2547V16.3973C60.7381 16.4374 60.6332 16.4754 60.5215 16.5111C60.4143 16.5469 60.2982 16.5804 60.1732 16.6116C60.0526 16.6429 59.9231 16.6719 59.7847 16.6987C59.6507 16.7255 59.51 16.7501 59.3626 16.7724C59.0768 16.817 58.8424 16.8907 58.6593 16.9934C58.4806 17.0917 58.3467 17.2145 58.2573 17.3619C58.1725 17.5048 58.1301 17.6655 58.1301 17.8442C58.1301 18.13 58.2306 18.3488 58.4315 18.5007C58.6325 18.6525 58.8893 18.7284 59.2019 18.7284Z" fill="#1A1A1A"/>
<path d="M76.2752 10.6096L72.8187 20.8988H68.5315L65.075 10.6096H68.9602L70.6215 17.4155H70.7287L72.39 10.6096H76.2752Z" fill="#1A1A1A"/>
<path d="M81.944 21.0864C80.8454 21.0864 79.8987 20.8765 79.1038 20.4567C78.3133 20.0324 77.7037 19.4251 77.275 18.6346C76.8507 17.8397 76.6386 16.8885 76.6386 15.781C76.6386 14.7181 76.853 13.7892 77.2817 12.9943C77.7104 12.1994 78.3155 11.5809 79.097 11.1388C79.8786 10.6967 80.8008 10.4756 81.8636 10.4756C82.6407 10.4756 83.344 10.5962 83.9737 10.8373C84.6034 11.0785 85.1415 11.429 85.5881 11.889C86.0347 12.3445 86.3786 12.8983 86.6197 13.5503C86.8609 14.2023 86.9814 14.9369 86.9814 15.7542V16.6116H77.7908V14.5752H83.5785C83.574 14.2805 83.4981 14.0214 83.3507 13.7982C83.2078 13.5704 83.0136 13.394 82.7679 13.269C82.5268 13.1394 82.2521 13.0747 81.944 13.0747C81.6448 13.0747 81.3701 13.1394 81.1201 13.269C80.87 13.394 80.669 13.5682 80.5172 13.7915C80.3698 14.0147 80.2917 14.276 80.2827 14.5752V16.7724C80.2827 17.1029 80.3519 17.3976 80.4904 17.6566C80.6288 17.9156 80.8276 18.1188 81.0866 18.2662C81.3456 18.4136 81.6582 18.4873 82.0244 18.4873C82.2789 18.4873 82.5112 18.4515 82.7211 18.3801C82.9354 18.3086 83.1185 18.2059 83.2704 18.0719C83.4222 17.9335 83.5338 17.7683 83.6053 17.5762H86.9814C86.8653 18.2908 86.5907 18.9115 86.1575 19.4385C85.7243 19.961 85.1505 20.3674 84.4359 20.6576C83.7259 20.9435 82.8952 21.0864 81.944 21.0864Z" fill="#1A1A1A"/>
<path d="M88.4903 20.8988V10.6096H92.0808V12.5656H92.188C92.3756 11.8421 92.6726 11.3129 93.0789 10.978C93.4898 10.6431 93.9699 10.4756 94.5192 10.4756C94.6799 10.4756 94.8385 10.489 94.9948 10.5158C95.1555 10.5381 95.3096 10.5716 95.457 10.6163V13.7714C95.2739 13.7088 95.0484 13.6619 94.7804 13.6307C94.5125 13.5994 94.2825 13.5838 94.0905 13.5838C93.7287 13.5838 93.4027 13.6664 93.1124 13.8316C92.8266 13.9924 92.6011 14.2202 92.4359 14.5149C92.2706 14.8052 92.188 15.1468 92.188 15.5398V20.8988H88.4903Z" fill="#1A1A1A"/>
<path d="M96.6695 20.8988V10.6096H100.367V20.8988H96.6695ZM98.5183 9.53777C98.0181 9.53777 97.5894 9.37254 97.2321 9.04207C96.8749 8.7116 96.6962 8.31414 96.6962 7.8497C96.6962 7.38525 96.8749 6.9878 97.2321 6.65733C97.5894 6.32686 98.0181 6.16162 98.5183 6.16162C99.0229 6.16162 99.4517 6.32686 99.8045 6.65733C100.162 6.9878 100.34 7.38525 100.34 7.8497C100.34 8.31414 100.162 8.7116 99.8045 9.04207C99.4517 9.37254 99.0229 9.53777 98.5183 9.53777Z" fill="#1A1A1A"/>
<path d="M107.208 21.0864C106.092 21.0864 105.136 20.8653 104.341 20.4232C103.546 19.9766 102.937 19.3559 102.512 18.5609C102.088 17.7616 101.876 16.8349 101.876 15.781C101.876 14.727 102.088 13.8026 102.512 13.0077C102.937 12.2083 103.546 11.5876 104.341 11.1455C105.136 10.6989 106.092 10.4756 107.208 10.4756C108.325 10.4756 109.28 10.6989 110.075 11.1455C110.87 11.5876 111.48 12.2083 111.904 13.0077C112.328 13.8026 112.54 14.727 112.54 15.781C112.54 16.8349 112.328 17.7616 111.904 18.5609C111.48 19.3559 110.87 19.9766 110.075 20.4232C109.28 20.8653 108.325 21.0864 107.208 21.0864ZM107.235 18.3533C107.548 18.3533 107.818 18.2483 108.046 18.0384C108.273 17.8285 108.45 17.5293 108.575 17.1408C108.7 16.7523 108.762 16.2901 108.762 15.7542C108.762 15.2138 108.7 14.7516 108.575 14.3675C108.45 13.979 108.273 13.6798 108.046 13.4699C107.818 13.26 107.548 13.1551 107.235 13.1551C106.905 13.1551 106.621 13.26 106.384 13.4699C106.148 13.6798 105.967 13.979 105.842 14.3675C105.717 14.7516 105.654 15.2138 105.654 15.7542C105.654 16.2901 105.717 16.7523 105.842 17.1408C105.967 17.5293 106.148 17.8285 106.384 18.0384C106.621 18.2483 106.905 18.3533 107.235 18.3533Z" fill="#1A1A1A"/>
<path fill-rule="evenodd" clip-rule="evenodd" d="M6.55314 3.2937C5.5772 3.97612 4.69467 4.78295 3.92857 5.6912C7.05924 5.40055 11.0366 5.87515 15.6544 8.18403C20.5855 10.6495 24.5562 10.7329 27.3197 10.1998C27.0689 9.44065 26.7532 8.71101 26.3793 8.01738C23.2159 8.35103 19.1604 7.90939 14.4341 5.54629C11.4328 4.04566 8.78726 3.4275 6.55314 3.2937ZM24.5314 5.38712C22.0333 2.59593 18.4028 0.839355 14.3621 0.839355C13.1754 0.839355 12.0241 0.99087 10.9265 1.27559C12.4131 1.68121 13.9923 2.27463 15.6544 3.1057C19.1147 4.83585 22.1022 5.39293 24.5314 5.38712ZM27.9105 12.8647C24.572 13.5239 19.9619 13.3885 14.4341 10.6246C9.26628 8.04071 5.15313 8.07325 2.37908 8.68972C2.23589 8.72151 2.09607 8.75494 1.95963 8.78973C1.59644 9.57961 1.30653 10.4102 1.09851 11.2727C1.32069 11.2134 1.55026 11.157 1.78713 11.1043C5.15255 10.3565 9.90759 10.3889 15.6544 13.2624C20.8223 15.8463 24.9354 15.8137 27.7095 15.1973C27.8045 15.1762 27.8982 15.1544 27.9903 15.1318C28.0004 14.9168 28.0054 14.7003 28.0054 14.4827C28.0054 13.9352 27.9732 13.3953 27.9105 12.8647ZM27.5448 18.0111C24.2387 18.5891 19.7628 18.3672 14.4341 15.7029C9.26628 13.119 5.15313 13.1516 2.37908 13.7681C1.76332 13.9048 1.20939 14.0715 0.720749 14.2474C0.719416 14.3257 0.71875 14.4041 0.71875 14.4827C0.71875 22.0177 6.82708 28.126 14.3621 28.126C20.677 28.126 25.9898 23.8358 27.5448 18.0111Z" fill="#1A1A1A"/>
</svg>
