<svg width="89" height="89" viewBox="0 0 89 89" fill="none" xmlns="http://www.w3.org/2000/svg">
<path d="M11.8267 33.9689H33.1608V13.151C33.1608 13.0994 33.5771 12.246 33.6769 12.2908L44.1031 22.8546C43.673 30.4247 46.7492 39.6809 38.3463 43.7963C34.9226 45.4721 29.7955 44.8321 26.124 44.6222C23.8495 44.4914 22.9307 45.4274 20.9487 43.9443C19.0012 42.4888 13.8844 37.0142 12.3429 35.0012C12.0779 34.6537 11.6788 34.5676 11.8302 33.9655L11.8267 33.9689Z" fill="white"/>
<path d="M11.8281 58.6311C14.0441 55.5824 16.9036 53.0361 19.5738 50.3762C20.3824 49.5711 20.6611 48.3461 22.0513 48.0364C23.8165 47.6407 34.0671 47.7198 36.0044 48.0467C37.8144 48.3529 41.1796 50.6171 42.2876 52.0864C45.6151 56.4909 43.6916 64.818 44.101 70.0896C41.7027 73.1589 38.4991 75.4059 35.6878 78.021C34.9446 78.7127 34.4801 80.034 33.1587 80.3093V59.1473C33.1587 59.1094 32.6804 58.6311 32.6426 58.6311H11.8281Z" fill="white"/>
<path d="M79.618 58.6292H58.8001C58.7622 58.6292 58.2839 59.1075 58.2839 59.1453V80.3073C57.6818 80.4587 57.5957 80.0596 57.2482 79.7946C56.1815 78.9757 47.5447 70.418 47.3416 69.7435C47.6789 64.878 46.1786 58.1371 48.4049 53.743C49.451 51.6784 53.0537 48.351 55.3798 47.9862C59.5915 47.329 65.3689 48.3854 69.7562 48.0206C72.9012 51.7025 76.6622 54.789 79.618 58.6326V58.6292Z" fill="white"/>
<path d="M79.9542 33.9677L69.7345 44.5659C62.5187 44.5556 51.948 46.9402 48.2387 38.6749C47.0791 36.0873 46.7797 25.5201 47.6916 22.8671C47.812 22.523 51.9412 18.0841 52.5846 17.4372C54.2638 15.7408 56.5865 14.0754 58.2794 12.293V33.455C58.2794 33.4928 58.7577 33.9711 58.7956 33.9711H79.9576L79.9542 33.9677Z" fill="white"/>
<g filter="url(#filter0_f_1378_8563)">
<path d="M10.5455 32.5158H31.8795V11.6979C31.8795 11.6463 32.2959 10.7929 32.3957 10.8376L42.8218 21.4014C42.3917 28.9716 45.4679 38.2278 37.0651 42.3432C33.6413 44.019 28.5142 43.379 24.8427 43.1691C22.5682 43.0383 21.6495 43.9742 19.6675 42.4912C17.7199 41.0356 12.6032 35.5611 11.0616 33.5481C10.7967 33.2005 10.3975 33.1145 10.5489 32.5123L10.5455 32.5158Z" fill="white"/>
<path d="M10.5469 57.178C12.7629 54.1293 15.6223 51.583 18.2925 48.9231C19.1011 48.1179 19.3799 46.8929 20.77 46.5833C22.5352 46.1875 32.7859 46.2667 34.7232 46.5936C36.5331 46.8998 39.8984 49.164 41.0064 50.6333C44.3338 55.0377 42.4103 63.3649 42.8198 68.6365C40.4214 71.7058 37.2179 73.9528 34.4066 76.5679C33.6633 77.2596 33.1988 78.5809 31.8775 78.8562V57.6942C31.8775 57.6563 31.3992 57.178 31.3613 57.178H10.5469Z" fill="white"/>
<path d="M78.3367 57.1761H57.5188C57.481 57.1761 57.0027 57.6543 57.0027 57.6922V78.8542C56.4005 79.0056 56.3145 78.6064 55.967 78.3415C54.9003 77.5225 46.2634 68.9648 46.0604 68.2904C46.3976 63.4249 44.8973 56.684 47.1236 52.2899C48.1697 50.2253 51.7724 46.8979 54.0985 46.5331C58.3103 45.8759 64.0877 46.9323 68.4749 46.5675C71.62 50.2494 75.3809 53.3359 78.3367 57.1795V57.1761Z" fill="white"/>
<path d="M78.6729 32.5146L68.4532 43.1128C61.2375 43.1024 50.6668 45.487 46.9574 37.2218C45.7978 34.6342 45.4984 24.067 46.4103 21.414C46.5307 21.0699 50.6599 16.631 51.3034 15.9841C52.9826 14.2877 55.3052 12.6223 56.9982 10.8398V32.0019C56.9982 32.0397 57.4765 32.518 57.5143 32.518H78.6763L78.6729 32.5146Z" fill="white"/>
</g>
<defs>
<filter id="filter0_f_1378_8563" x="0.641073" y="0.961386" width="87.9093" height="87.7999" filterUnits="userSpaceOnUse" color-interpolation-filters="sRGB">
<feFlood flood-opacity="0" result="BackgroundImageFix"/>
<feBlend mode="normal" in="SourceGraphic" in2="BackgroundImageFix" result="shape"/>
<feGaussianBlur stdDeviation="4.93728" result="effect1_foregroundBlur_1378_8563"/>
</filter>
</defs>
</svg>
